<?xml version="1.0" encoding="utf-8"?>
<!-- Generator: Adobe Illustrator 24.0.0, SVG Export Plug-In . SVG Version: 6.00 Build 0)  -->
<svg version="1.1" xmlns="http://www.w3.org/2000/svg" xmlns:xlink="http://www.w3.org/1999/xlink" x="0px" y="0px"
	 viewBox="0 0 567.4 567.4" style="enable-background:new 0 0 567.4 567.4;" xml:space="preserve">
<style type="text/css">
	.st0{opacity:0.25;fill-rule:evenodd;clip-rule:evenodd;}
	.st1{fill-rule:evenodd;clip-rule:evenodd;fill:none;stroke:#000000;stroke-width:9;stroke-miterlimit:10;}
	.st2{fill:#CDCDCD;}
	.st3{fill:#919191;}
	.st4{fill:#2AA9A2;}
	.st5{fill:#DDCB3B;}
	.st6{fill:#E73148;}
</style>
<g id="Circle">
	<!--<circle id="Circle_x5F_BG" class="st0" cx="283.7" cy="283.7" r="279.2"/>-->
	<circle id="Circle_x5F_Border" class="st1" cx="283.7" cy="283.7" r="279.2"/>
</g>
<g id="GC_Controller">
	<g id="Stick">
		<path id="Stick_x5F_Inner" class="st2" d="M126.9,178.7c-16.1,0-29.3,13.1-29.3,29.3s13.1,29.3,29.3,29.3s29.3-13.1,29.3-29.3
			C156.1,191.8,143,178.7,126.9,178.7z"/>
		<path id="Stick_x5F_Outer" class="st3" d="M126.9,150.2c-31.8,0-57.7,25.9-57.7,57.7s25.9,57.7,57.7,57.7
			c31.8,0,57.7-25.9,57.7-57.7S158.7,150.2,126.9,150.2z M126.9,242.3c-18.9,0-34.4-15.4-34.4-34.4s15.4-34.4,34.4-34.4
			s34.4,15.4,34.4,34.4S145.8,242.3,126.9,242.3z"/>
	</g>
	<path id="D_x5F_Pad" class="st2" d="M208,287.6c0-1.2-1-2.3-2.3-2.3h-17.2c-1.2,0-2.3,1-2.3,2.3v23.6h-23.6c-1.2,0-2.3,1-2.3,2.3
		v17.2c0,1.2,1,2.3,2.3,2.3h23.6v23.6c0,1.2,1,2.3,2.3,2.3h17.2c1.2,0,2.3-1,2.3-2.3v-23.6h23.6c1.2,0,2.3-1,2.3-2.3v-17.2
		c0-1.3-1-2.3-2.3-2.3H208V287.6z"/>
	<circle id="Start" class="st2" cx="284" cy="205.7" r="11.4"/>
	<g id="Shell">
		<path id="Shell_x5F_Button" d="M481.5,219.6c-0.1-0.2-0.1-0.5-0.1-0.7c0-0.1,0.2-9.6-1.5-15.8c-1.1-3.9-3.3-7.9-4.9-10.9
			c-1.1-1.9-1.7-3.2-2-4.2c-1.4-5.3-0.3-10.6,2.5-14.8c-5.7-5.6-12.6-9.8-20.3-12.4c-0.2,0.5-0.4,1-0.7,1.5c-2.4,4.2-6.3,7.2-11,8.4
			c-0.2,0.1-0.5,0.1-0.7,0.1l-0.8,0c-2.2,0-9.8,0.1-15,1.5c-4,1.1-8,3.3-10.9,4.9c-1.9,1.1-3.2,1.7-4.2,2c-1.5,0.4-3.1,0.6-4.7,0.6
			c-3.2,0-6.3-0.9-9-2.5c-7.4,9-11.9,20.6-11.9,33.2c0,1.9,0.1,3.7,0.3,5.5c10.5,2.7,18.3,12.1,18.3,23.4c0,3.3-0.7,6.5-1.9,9.4
			c9.4,8.7,21.9,14.1,35.6,14.1c22.4,0,41.5-14.1,49-33.9C484.8,226.8,482.5,223.5,481.5,219.6z M439.7,245.7
			c-18.4,0-33.4-15-33.4-33.4s15-33.4,33.4-33.4c18.4,0,33.4,15,33.4,33.4S458.1,245.7,439.7,245.7z"/>
		<path id="Shell_x5F_Main" d="M485.1,132.9c0,0-7.7-39.9-64.5-28.4c0,0-32.7-17.8-119.2-20.8c4.2-21.6,31-16.7,45.8-27.2
			C359.7,47.6,366,32,364.7,17c-0.4-5.8-21.6-13.1-20.4,0c0.9,9.9-2.2,18.2-10.5,24.1c-8.3,5.9-20.3,3.6-29.3,8.5
			c-13.5,7.4-21,19.1-23.4,33.8c-97.3,1.3-133.7,21.1-133.7,21.1C90.6,93,82.9,132.9,82.9,132.9C26.6,170.4,43,239.7,43,239.7
			c-5.8,70.2-7.9,199.6,39,199.6s46.7-121.1,46.7-121.1s8.2,13.5,14.4,31.3c6.3,17.8,52.9,66.4,103.4,13
			c50.5-53.4-19.2-106.8-19.2-106.8v-8.5c16.8-4.6,56.8-5.5,56.8-5.5s39.9,0.8,56.8,5.5v8.5c0,0-69.8,53.4-19.2,106.8
			s97.2,4.8,103.4-13c6.3-17.8,14.4-31.3,14.4-31.3s-0.2,121.1,46.7,121.1s44.7-129.3,39-199.6C525,239.7,541.4,170.4,485.1,132.9z
			 M132.6,270.5c-39.1,3.5-71.8-29.2-68.3-68.3c2.7-30,26.8-54.1,56.8-56.8c39.1-3.5,71.8,29.2,68.3,68.3
			C186.7,243.6,162.6,267.8,132.6,270.5z M231.4,306.2c4.1,0,7.5,3.3,7.5,7.3v17.1c0,4.1-3.3,7.4-7.4,7.4H213v18.5
			c0,4.1-3.3,7.4-7.4,7.4h-17c-4.1,0-7.4-3.3-7.4-7.4v-18.5h-18.5c-4.1,0-7.4-3.3-7.4-7.4v-17c0-4.1,3.3-7.4,7.4-7.4h18.5v-18.5
			c0-4.1,3.3-7.4,7.4-7.4h17c4.1,0,7.4,3.3,7.4,7.4v18.5L231.4,306.2L231.4,306.2z M286.2,222.1c-10.8,1.4-19.9-7.7-18.6-18.6
			c0.9-7.4,6.9-13.3,14.3-14.2c10.8-1.4,19.9,7.8,18.5,18.5C299.5,215.2,293.5,221.2,286.2,222.1z M411.6,327.6L396,355.4
			c-0.3,0.6-0.9,1.1-1.6,1.2l-30.2,7.7c-0.2,0.1-0.4,0.1-0.6,0.1c-0.4,0-0.9-0.1-1.3-0.3l-26.9-15.8c-0.6-0.4-1-0.9-1.2-1.6
			l-7.3-31.1c-0.2-0.7,0-1.4,0.3-2l16.1-25c0.4-0.5,0.9-0.9,1.5-1.1l29.2-7.2c0.6-0.2,1.3-0.1,1.9,0.3l26.1,15
			c0.6,0.3,1,0.9,1.2,1.5l8.5,28.5C412,326.3,411.9,327,411.6,327.6z M503.6,232.4c-1.5,0.4-3.1,0.6-4.7,0.6c-2.3,0-4.5-0.5-6.6-1.3
			c-8.4,21.3-29.2,36.5-53.5,36.5c-14.7,0-28-5.6-38.2-14.7c-4.8,6.8-12.9,11-22,10.2c-11.3-1-20.6-10.1-21.8-21.4
			c-1.6-14.6,9.8-27,24.1-27c0.3,0,0.5,0.1,0.7,0.1c-0.1-1.6-0.2-3.1-0.2-4.8c0-13.8,4.9-26.4,13-36.3c-2.1-2.1-3.6-4.8-4.4-7.8
			c-2.6-9.6,3.1-19.6,12.8-22.2l0.9-0.3c15.6-4.7,15.6-4.7,30-8.1l0.7-0.2c1.5-0.3,2.9-0.5,4.4-0.5c8.4,0,15.5,5.3,17.7,13.3
			c0.7,2.4,0.8,4.9,0.4,7.4c8.4,2.8,16,7.4,22.2,13.4c1.9-1.6,4.2-2.9,6.8-3.6c1.5-0.4,3.1-0.6,4.7-0.6c8.1,0,15.3,5.5,17.5,13.4
			l0.2,0.8c4.8,15.7,4.8,15.7,8.1,30l0.2,0.8C518.7,220.2,513.1,229.9,503.6,232.4z"/>
	</g>
	<path id="A" class="st4" d="M439.7,184c-15.6,0-28.3,12.7-28.3,28.3c0,15.6,12.7,28.3,28.3,28.3c15.6,0,28.3-12.7,28.3-28.3
		C468,196.7,455.3,184,439.7,184z"/>
	<g id="C_x5F_Stick">
		<path id="C_x5F_Inner" class="st5" d="M369.4,301.8c-11.3,0-20.5,9.2-20.5,20.5c0,11.3,9.2,20.5,20.5,20.5
			c11.3,0,20.5-9.2,20.5-20.5C389.9,311,380.7,301.8,369.4,301.8z"/>
		<path id="C_x5F_Outer" class="st5" d="M374.3,285.6l-27.2,6.7l-15,23.2l6.8,28.9l25,14.7l28.1-7.2l14.5-25.9l-7.9-26.5
			L374.3,285.6z M369.4,348c-14.1,0-25.6-11.5-25.6-25.6c0-14.1,11.5-25.6,25.6-25.6s25.6,11.5,25.6,25.6
			C395,336.5,383.5,348,369.4,348z"/>
	</g>
	<path id="B" class="st6" d="M387.7,221.9c-1.7-0.7-3.5-1-5.4-1.2c-0.5,0-0.9-0.1-1.4-0.1c-10.5,0-19.1,8.6-19.1,19.1
		s8.6,19.1,19.1,19.1c6.8,0,12.7-3.5,16.1-8.8c1-1.6,1.7-3.3,2.3-5.1c0.5-1.7,0.8-3.4,0.8-5.2C400,231.6,394.9,224.7,387.7,221.9z"
		/>
	<path id="Y" class="st2" d="M397.8,170.7c1.2,1.3,2.6,2.3,4.2,3c2.7,1.3,5.8,1.7,8.8,0.9c0.4-0.1,1.9-0.9,3-1.6
		c3.1-1.7,7.5-4.1,12-5.3c5.6-1.5,13.3-1.7,16.3-1.7l0.5,0c3.2-1,5.9-3.1,7.5-6c0.1-0.1,0.1-0.2,0.1-0.3c0.8-1.5,1.3-3.2,1.5-4.9
		c0.2-1.6,0.1-3.1-0.4-4.7c-1.5-5.7-6.6-9.5-12.7-9.5c-1.1,0-2.2,0.1-3.3,0.4l-0.7,0.2c-14.2,3.3-14.2,3.3-29.7,8l-1,0.3
		c-7,1.9-11.1,9-9.2,15.9C395.4,167.4,396.5,169.2,397.8,170.7z"/>
</g>
</svg>
