<svg id="Schrift" xmlns="http://www.w3.org/2000/svg" viewBox="0 0 736.63 83.25"><title>berlinsmash</title><path d="M45,20.94l5.65.3a35.67,35.67,0,0,1,8,1.41,26.7,26.7,0,0,1,9.85,5.26c3,2.49,4.7,6.29,5.1,11.41v.35a.82.82,0,0,0,.1.36v.7a14.07,14.07,0,0,1-4.34,10.36Q65,55.38,57.71,56a.18.18,0,0,1,.15.06.25.25,0,0,0,.16.05,35.39,35.39,0,0,1,11.81,5.85Q75.19,66,75.19,74.27q0,10.7-7.63,15.25T45,94.06H12.36V20.94ZM43.37,49.52q4.74.1,6.77-1.72a6.84,6.84,0,0,0,2-5.35,6.61,6.61,0,0,0-2.33-5.05,9.24,9.24,0,0,0-6.46-2.12l-10.3-.1V49.52Zm.81,30.2q4.55.11,6.66-1.67a7.27,7.27,0,0,0,2.63-3.89,5.85,5.85,0,0,0,.15-.75,6.06,6.06,0,0,0,.05-.76,8,8,0,0,0-.1-1.26,6,6,0,0,0-.4-1.37,8.79,8.79,0,0,0-2.68-3.58A8.27,8.27,0,0,0,45,64.77l-11.92-.1v15Z" transform="translate(-6.36 -12.42)"/><path d="M135.08,20.94V36h-35V50.33h32.62V65.48H100.13V79.72h35V94.06H79.43V20.94Z" transform="translate(-6.36 -12.42)"/><path d="M172.75,20.94a4.75,4.75,0,0,0,1,.1h1A49.25,49.25,0,0,1,193.56,25q8.58,3.73,8.58,15.15,0,8.88-5.15,13a26.62,26.62,0,0,1-12.32,5.3q10.8.41,13.38,7.27a59.11,59.11,0,0,1,3.38,14.95V81a1,1,0,0,0,.1.41q.32,3.33.76,6.61a28.58,28.58,0,0,0,1.47,6H181.54a14.05,14.05,0,0,1-1.06-4.44c-.17-1.75-.32-3.57-.46-5.46,0-.4,0-.79-.05-1.16s-.05-.76-.05-1.16a43.24,43.24,0,0,0-2-10.71q-1.62-4.84-7.57-4.84l-9.5-.1V94.06h-20.7V20.94Zm-11.92,31h8a4.79,4.79,0,0,0,1,.11h1a17.94,17.94,0,0,0,6.87-1.72c2.08-1,3.13-3.1,3.13-6.26A6.54,6.54,0,0,0,177.5,38a15.41,15.41,0,0,0-8-1.92l-8.69-.1Z" transform="translate(-6.36 -12.42)"/><path d="M228.7,20.94v58h32.63V94.06H208V20.94Z" transform="translate(-6.36 -12.42)"/><path d="M284.66,20.94V94.06H264V20.94Z" transform="translate(-6.36 -12.42)"/><path d="M319.91,20.94l24.74,54v-54h18.28V94.06H334.25L309.6,39.22V94.06H291.32V20.94Z" transform="translate(-6.36 -12.42)"/><path d="M367.17,70.23h20.71A15.69,15.69,0,0,0,388,72a11.16,11.16,0,0,0,.4,1.92,9.51,9.51,0,0,0,3.08,4.6q2.37,2.07,7.53,2.07,5.44,0,8.33-2.07a6.2,6.2,0,0,0,3-4.8,6.06,6.06,0,0,0-.05-.76q-.06-.34-.15-.75a8.85,8.85,0,0,0-3.64-4.4,21.29,21.29,0,0,0-8.28-3.08,1.33,1.33,0,0,1-.4,0,1.7,1.7,0,0,1-.41-.15Q381.22,61,375.3,56.44t-6.51-14V41.34q-.1-10.8,9-16.36t22-5.56q17.86.61,23.68,7a23,23,0,0,1,5.81,16l-20.71-.1a7.37,7.37,0,0,0-2.42-5.66q-2.43-2.22-7.17-2.22-4.25,0-6.42,2a6.25,6.25,0,0,0-2.27,4.39v.71a6.75,6.75,0,0,0,2.48,4A11.26,11.26,0,0,0,399,48c1.55.27,3.13.55,4.74.85s3.27.66,4.95,1.06a51.71,51.71,0,0,1,15.76,6.52q7.17,4.5,7.17,14.69,0,13.14-9.34,18.84T399.8,95.68q-16.07,0-24-6.42t-8.59-18.93Z" transform="translate(-6.36 -12.42)"/><path d="M469.28,20.94l11.11,48.48L491.5,20.94h31.82V94.06H505.85V32.86l-16.67,61.2H470.09l-16-61.2v61.2H436.66V20.94Z" transform="translate(-6.36 -12.42)"/><path d="M579.27,20.94,608,94.06h-23l-4.85-13.53H551.5l-4.75,13.53H525.24l29.39-73.12ZM565.84,36l-9.6,29.49h18.29Z" transform="translate(-6.36 -12.42)"/><path d="M607.45,70.23h20.71a15.69,15.69,0,0,0,.1,1.81,10.28,10.28,0,0,0,.4,1.92,9.51,9.51,0,0,0,3.08,4.6q2.37,2.07,7.53,2.07,5.44,0,8.33-2.07a6.2,6.2,0,0,0,3-4.8,6.06,6.06,0,0,0-.05-.76q-.06-.34-.15-.75a8.9,8.9,0,0,0-3.64-4.4,21.29,21.29,0,0,0-8.28-3.08,1.44,1.44,0,0,1-.41,0,1.63,1.63,0,0,1-.4-.15Q621.5,61,615.58,56.44t-6.51-14V41.34q-.11-10.8,9-16.36t22-5.56q17.88.61,23.69,7a23,23,0,0,1,5.81,16l-20.71-.1a7.37,7.37,0,0,0-2.42-5.66q-2.43-2.22-7.17-2.22-4.24,0-6.42,2a6.21,6.21,0,0,0-2.27,4.39v.71a6.75,6.75,0,0,0,2.48,4A11.26,11.26,0,0,0,639.27,48c1.54.27,3.13.55,4.74.85s3.27.66,5,1.06a51.81,51.81,0,0,1,15.76,6.52q7.17,4.5,7.17,14.69,0,13.14-9.34,18.84t-22.48,5.71q-16.05,0-24-6.42t-8.59-18.93Z" transform="translate(-6.36 -12.42)"/><path d="M697.65,20.94V50.33h24.64V20.94H743V94.06h-20.7V64.67H697.65V94.06H676.94V20.94Z" transform="translate(-6.36 -12.42)"/><path d="M39,13.94l5.65.3a35.67,35.67,0,0,1,8,1.41,26.7,26.7,0,0,1,9.85,5.26c3,2.49,4.7,6.29,5.1,11.41v.35a.82.82,0,0,0,.1.36v.7a14.07,14.07,0,0,1-4.34,10.36Q59,48.38,51.71,49a.18.18,0,0,1,.15.06.25.25,0,0,0,.16.05,35.39,35.39,0,0,1,11.81,5.85Q69.19,59,69.19,67.27q0,10.7-7.63,15.25T39,87.06H6.36V13.94ZM37.37,42.52q4.74.1,6.77-1.72a6.84,6.84,0,0,0,2-5.35,6.61,6.61,0,0,0-2.33-5.05,9.24,9.24,0,0,0-6.46-2.12l-10.3-.1V42.52Zm.81,30.2q4.55.11,6.66-1.67a7.27,7.27,0,0,0,2.63-3.89,5.85,5.85,0,0,0,.15-.75,6.06,6.06,0,0,0,.05-.76,8,8,0,0,0-.1-1.26,6,6,0,0,0-.4-1.37,8.79,8.79,0,0,0-2.68-3.58A8.27,8.27,0,0,0,39,57.77l-11.92-.1v15Z" transform="translate(-6.36 -12.42)" style="fill:#e20500"/><path d="M129.08,13.94V29h-35V43.33h32.62V58.48H94.13V72.72h35V87.06H73.43V13.94Z" transform="translate(-6.36 -12.42)" style="fill:#e20500"/><path d="M166.75,13.94a4.75,4.75,0,0,0,1,.1h1A49.25,49.25,0,0,1,187.56,18q8.58,3.73,8.58,15.15,0,8.88-5.15,13a26.62,26.62,0,0,1-12.32,5.3q10.8.41,13.38,7.27a59.11,59.11,0,0,1,3.38,14.95V74a1,1,0,0,0,.1.41q.32,3.33.76,6.61a28.58,28.58,0,0,0,1.47,6H175.54a14.05,14.05,0,0,1-1.06-4.44c-.17-1.75-.32-3.57-.46-5.46,0-.4,0-.79-.05-1.16s-.05-.76-.05-1.16a43.24,43.24,0,0,0-2-10.71q-1.62-4.84-7.57-4.84l-9.5-.1V87.06h-20.7V13.94Zm-11.92,31h8a4.79,4.79,0,0,0,1,.11h1a17.94,17.94,0,0,0,6.87-1.72c2.08-1,3.13-3.1,3.13-6.26A6.54,6.54,0,0,0,171.5,31a15.41,15.41,0,0,0-8-1.92l-8.69-.1Z" transform="translate(-6.36 -12.42)" style="fill:#e20500"/><path d="M222.7,13.94v58h32.63V87.06H202V13.94Z" transform="translate(-6.36 -12.42)" style="fill:#e20500"/><path d="M278.66,13.94V87.06H258V13.94Z" transform="translate(-6.36 -12.42)" style="fill:#e20500"/><path d="M313.91,13.94l24.74,54v-54h18.28V87.06H328.25L303.6,32.22V87.06H285.32V13.94Z" transform="translate(-6.36 -12.42)" style="fill:#e20500"/><path d="M361.17,63.23h20.71A15.69,15.69,0,0,0,382,65a11.16,11.16,0,0,0,.4,1.92,9.51,9.51,0,0,0,3.08,4.6q2.37,2.07,7.53,2.07,5.44,0,8.33-2.07a6.2,6.2,0,0,0,3-4.8,6.06,6.06,0,0,0-.05-.76q-.06-.34-.15-.75a8.85,8.85,0,0,0-3.64-4.4,21.29,21.29,0,0,0-8.28-3.08,1.33,1.33,0,0,1-.4-.05,1.7,1.7,0,0,1-.41-.15Q375.22,54,369.3,49.44t-6.51-14V34.34q-.1-10.8,9-16.36t22-5.56q17.86.62,23.68,7a23,23,0,0,1,5.81,16l-20.71-.1a7.37,7.37,0,0,0-2.42-5.66q-2.43-2.22-7.17-2.22-4.25,0-6.42,2a6.25,6.25,0,0,0-2.27,4.39v.71a6.75,6.75,0,0,0,2.48,4A11.26,11.26,0,0,0,393,41c1.55.27,3.13.55,4.74.85s3.27.66,4.95,1.06a51.71,51.71,0,0,1,15.76,6.52q7.17,4.5,7.17,14.69,0,13.14-9.34,18.84T393.8,88.68q-16.07,0-24-6.42t-8.59-18.93Z" transform="translate(-6.36 -12.42)" style="fill:#e20500"/><path d="M463.28,13.94l11.11,48.48L485.5,13.94h31.82V87.06H499.85V25.86l-16.67,61.2H464.09l-16-61.2v61.2H430.66V13.94Z" transform="translate(-6.36 -12.42)" style="fill:#e20500"/><path d="M573.27,13.94,602,87.06h-23l-4.85-13.53H545.5l-4.75,13.53H519.24l29.39-73.12ZM559.84,29l-9.6,29.49h18.29Z" transform="translate(-6.36 -12.42)" style="fill:#e20500"/><path d="M601.45,63.23h20.71a15.69,15.69,0,0,0,.1,1.81,10.28,10.28,0,0,0,.4,1.92,9.51,9.51,0,0,0,3.08,4.6q2.37,2.07,7.53,2.07,5.44,0,8.33-2.07a6.2,6.2,0,0,0,3-4.8,6.06,6.06,0,0,0-.05-.76q-.06-.34-.15-.75a8.9,8.9,0,0,0-3.64-4.4,21.29,21.29,0,0,0-8.28-3.08,1.44,1.44,0,0,1-.41-.05,1.63,1.63,0,0,1-.4-.15Q615.5,54,609.58,49.44t-6.51-14V34.34q-.11-10.8,9-16.36t22-5.56q17.88.62,23.69,7a23,23,0,0,1,5.81,16l-20.71-.1a7.37,7.37,0,0,0-2.42-5.66q-2.43-2.22-7.17-2.22-4.24,0-6.42,2a6.21,6.21,0,0,0-2.27,4.39v.71a6.75,6.75,0,0,0,2.48,4A11.26,11.26,0,0,0,633.27,41c1.54.27,3.13.55,4.74.85s3.27.66,5,1.06a51.81,51.81,0,0,1,15.76,6.52q7.17,4.5,7.17,14.69,0,13.14-9.34,18.84t-22.48,5.71q-16.05,0-24-6.42t-8.59-18.93Z" transform="translate(-6.36 -12.42)" style="fill:#e20500"/><path d="M691.65,13.94V43.33h24.64V13.94H737V87.06h-20.7V57.67H691.65V87.06H670.94V13.94Z" transform="translate(-6.36 -12.42)" style="fill:#e20500"/></svg>