<?xml version="1.0" encoding="utf-8"?>
<!-- Generator: Adobe Illustrator 24.0.0, SVG Export Plug-In . SVG Version: 6.00 Build 0)  -->
<svg version="1.1" id="Ebene_1" xmlns="http://www.w3.org/2000/svg" xmlns:xlink="http://www.w3.org/1999/xlink" x="0px" y="0px"
	 viewBox="0 0 28.3 28.3" style="enable-background:new 0 0 28.3 28.3;" xml:space="preserve">
<style type="text/css">
	.st0{fill:#E20500;}
</style>
<g>
	<g>
		<g>
			<path class="st0" d="M15.3,10.4l-0.1,0.1c1.2,0.4,1.8,0.9,1.8,0.9c-0.7-0.4-1.5-0.6-2.1-0.7c-0.5-0.1-1,0-1.4,0h-0.1
				c-0.2,0-0.9,0.1-1.6,0.4c-0.3,0.1-0.4,0.2-0.4,0.2s0.6-0.6,1.9-0.9l-0.1-0.1c0,0-1,0-2,0.7c0,0-1,1.8-1,4.1c0,0,0.6,1,2.2,1.1
				c0,0,0.3-0.3,0.5-0.6c-0.9-0.3-1.2-0.8-1.2-0.8s0.1,0,0.2,0.1l0,0c0,0,0,0,0.1,0c0.2,0.1,0.4,0.2,0.5,0.2c0.3,0.1,0.6,0.2,1,0.3
				c0.5,0.1,1.2,0.1,1.8,0c0.3-0.1,0.7-0.2,1-0.3c0.2-0.1,0.5-0.2,0.8-0.4c0,0-0.4,0.6-1.3,0.8c0.2,0.3,0.5,0.6,0.5,0.6
				c1.6,0,2.2-1.1,2.2-1.1c0-2.3-1-4.1-1-4.1C16.3,10.4,15.3,10.4,15.3,10.4z M12.9,14.6c-0.4,0-0.7-0.4-0.7-0.8
				c0-0.4,0.3-0.8,0.7-0.8s0.7,0.4,0.7,0.8C13.6,14.3,13.3,14.6,12.9,14.6z M15.5,14.6c-0.4,0-0.7-0.4-0.7-0.8
				c0-0.4,0.3-0.8,0.7-0.8s0.7,0.4,0.7,0.8C16.2,14.3,15.9,14.6,15.5,14.6z"/>
			<path class="st0" d="M14.2,0C6.3,0,0,6.3,0,14.2s6.3,14.2,14.2,14.2c7.8,0,14.2-6.3,14.2-14.2S22,0,14.2,0z M20.4,21.3L18.9,20
				L18,19.1l-0.9-0.8l0.4,1.3h-8c-0.8,0-1.5-0.7-1.5-1.5V8.5C8,7.7,8.7,7,9.5,7H19c0.8,0,1.5,0.7,1.5,1.5v12.8H20.4z"/>
		</g>
	</g>
</g>
</svg>
