<svg id="Schrift" xmlns="http://www.w3.org/2000/svg" viewBox="0 0 298.81 83.25"><title>Links</title><path d="M29.55,20.94v58H62.17V94.06H8.84V20.94Z" transform="translate(-6.36 -12.42)"/><path d="M85.5,20.94V94.06H64.8V20.94Z" transform="translate(-6.36 -12.42)"/><path d="M120.75,20.94,145.5,75v-54h18.28V94.06H135.09L110.45,39.22V94.06H92.17V20.94Z" transform="translate(-6.36 -12.42)"/><path d="M192,20.94V52.75l23-31.81h24.65L214.17,52.75l27.88,41.31H215.79L192,55.08v39h-20.7V20.94Z" transform="translate(-6.36 -12.42)"/><path d="M240.74,70.23h20.7c0,.6,0,1.21.1,1.81A11.22,11.22,0,0,0,262,74a9.45,9.45,0,0,0,3.08,4.6q2.37,2.07,7.52,2.07,5.46,0,8.34-2.07a6.19,6.19,0,0,0,3-4.8,4.62,4.62,0,0,0-.05-.76,6.21,6.21,0,0,0-.15-.75,8.82,8.82,0,0,0-3.63-4.4,21.41,21.41,0,0,0-8.29-3.08,1.37,1.37,0,0,1-.4,0,1.49,1.49,0,0,1-.4-.15Q254.77,61,248.87,56.44t-6.52-14V41.34q-.09-10.8,9-16.36t22-5.56q17.88.61,23.68,7t5.81,16l-20.7-.1a7.35,7.35,0,0,0-2.43-5.66q-2.42-2.22-7.17-2.22c-2.83,0-5,.66-6.41,2a6.17,6.17,0,0,0-2.27,4.39v.71a6.73,6.73,0,0,0,2.47,4A11.33,11.33,0,0,0,272.55,48c1.55.27,3.13.55,4.75.85s3.26.66,4.95,1.06A51.76,51.76,0,0,1,298,56.44q7.17,4.5,7.18,14.69,0,13.14-9.35,18.84t-22.47,5.71q-16.07,0-24-6.42t-8.58-18.93Z" transform="translate(-6.36 -12.42)"/><path d="M27.07,13.94v58H59.69V87.06H6.36V13.94Z" transform="translate(-6.36 -12.42)" style="fill:#e20500"/><path d="M83,13.94V87.06H62.32V13.94Z" transform="translate(-6.36 -12.42)" style="fill:#e20500"/><path d="M118.27,13.94,143,68v-54H161.3V87.06H132.61L108,32.22V87.06H89.69V13.94Z" transform="translate(-6.36 -12.42)" style="fill:#e20500"/><path d="M189.47,13.94V45.75l23-31.81h24.65L211.69,45.75l27.88,41.31H213.31l-23.84-39v39h-20.7V13.94Z" transform="translate(-6.36 -12.42)" style="fill:#e20500"/><path d="M238.26,63.23H259a15.69,15.69,0,0,0,.1,1.81,11.22,11.22,0,0,0,.41,1.92,9.45,9.45,0,0,0,3.08,4.6q2.37,2.07,7.52,2.07,5.46,0,8.33-2.07c1.92-1.38,2.92-3,3-4.8a4.62,4.62,0,0,0-.05-.76,6.21,6.21,0,0,0-.15-.75,8.82,8.82,0,0,0-3.63-4.4,21.41,21.41,0,0,0-8.29-3.08,1.37,1.37,0,0,1-.4-.05,1.49,1.49,0,0,1-.4-.15Q252.29,54,246.39,49.44t-6.52-14V34.34q-.09-10.8,9-16.36t22-5.56q17.88.62,23.68,7t5.81,16l-20.7-.1a7.35,7.35,0,0,0-2.43-5.66q-2.42-2.22-7.17-2.22c-2.83,0-5,.66-6.41,2a6.17,6.17,0,0,0-2.27,4.39v.71a6.73,6.73,0,0,0,2.47,4A11.33,11.33,0,0,0,270.07,41c1.55.27,3.13.55,4.75.85s3.26.66,4.95,1.06a51.76,51.76,0,0,1,15.75,6.52q7.17,4.5,7.17,14.69,0,13.14-9.34,18.84t-22.47,5.71q-16.06,0-24-6.42t-8.58-18.93Z" transform="translate(-6.36 -12.42)" style="fill:#e20500"/></svg>