<?xml version="1.0" encoding="utf-8"?>
<!-- Generator: Adobe Illustrator 24.0.0, SVG Export Plug-In . SVG Version: 6.00 Build 0)  -->
<svg version="1.1" xmlns="http://www.w3.org/2000/svg" xmlns:xlink="http://www.w3.org/1999/xlink" x="0px" y="0px"
	 viewBox="0 0 567.4 567.4" style="enable-background:new 0 0 567.4 567.4;" xml:space="preserve">
<style type="text/css">
	.st0{opacity:0.25;fill-rule:evenodd;clip-rule:evenodd;}
	.st1{fill-rule:evenodd;clip-rule:evenodd;fill:none;stroke:#000000;stroke-width:9;stroke-miterlimit:10;}
	.st2{fill:#919191;}
	.st3{fill:#CDCDCD;}
	.st4{display:none;}
	.st5{fill:#2AA9A2;}
	.st6{fill:#DDCB3B;}
	.st7{fill:#E73148;}
	.st8{fill:none;}
	.st9{fill:#E20500;}
</style>
<g id="Kreis">
	<circle class="st0" cx="283.7" cy="283.7" r="279.2"/>
	<circle class="st1" cx="283.7" cy="283.7" r="279.2"/>
</g>
<g id="GC_Controller">
	<path class="st2" d="M167.7,110.7c-23.3,0-42.2,18.9-42.2,42.2s18.9,42.2,42.2,42.2c23.3,0,42.2-18.9,42.2-42.2
		S191,110.7,167.7,110.7z M167.7,178.1c-13.9,0-25.1-11.3-25.1-25.2c0-13.9,11.3-25.2,25.1-25.2c13.9,0,25.1,11.3,25.1,25.2
		C192.9,166.8,181.6,178.1,167.7,178.1z"/>
	<path class="st3" d="M167.7,131.5c-11.8,0-21.4,9.6-21.4,21.4s9.6,21.4,21.4,21.4c11.8,0,21.4-9.6,21.4-21.4
		C189.1,141.2,179.5,131.5,167.7,131.5z"/>
	<path class="st3" d="M227.1,211.3c0-0.9-0.7-1.7-1.7-1.7h-12.6c-0.9,0-1.7,0.7-1.7,1.7v17.3h-17.3c-0.9,0-1.7,0.7-1.7,1.7v12.6
		c0,0.9,0.7,1.7,1.7,1.7h17.3v17.3c0,0.9,0.7,1.7,1.7,1.7h12.6c0.9,0,1.7-0.7,1.7-1.7v-17.3h17.3c0.9,0,1.7-0.7,1.7-1.7v-12.6
		c0-0.9-0.7-1.7-1.7-1.7h-17.3V211.3z"/>
	<path d="M429.8,98.1c0,0-5.6-29.2-47.2-20.8c0,0-23.9-13-87.2-15.2c3.1-15.8,22.7-12.2,33.5-19.9c9.1-6.5,13.8-17.9,12.8-28.9
		c-0.9-9.5-15.8-9.6-14.9,0c0.7,7.2-1.6,13.3-7.7,17.6c-6.1,4.3-14.9,2.6-21.5,6.2c-9.9,5.4-15.4,14-17.1,24.8
		c-71.2,1-97.8,15.5-97.8,15.5c-41.5-8.4-47.2,20.8-47.2,20.8c-41.2,27.5-29.2,78.2-29.2,78.2c-4.2,51.4-5.8,146,28.5,146
		s34.1-88.7,34.1-88.7s6,9.9,10.6,22.9c4.6,13,38.7,48.6,75.7,9.5c37-39.1-14.1-78.2-14.1-78.2v-6.2c12.3-3.4,41.5-4,41.5-4
		s29.2,0.6,41.5,4v6.2c0,0-51,39.1-14.1,78.2s71.1,3.5,75.7-9.5c4.6-13,10.6-22.9,10.6-22.9s-0.2,88.7,34.1,88.7s32.7-94.6,28.5-146
		C459.1,176.2,471,125.5,429.8,98.1z M171.9,198.7c-28.6,2.6-52.5-21.3-50-50c2-21.9,19.6-39.6,41.6-41.6c28.6-2.5,52.5,21.3,50,50
		C211.5,179.1,193.8,196.8,171.9,198.7z M244.2,224.9c3,0,5.5,2.4,5.5,5.3v12.5c0,3-2.4,5.4-5.4,5.4h-13.5v13.5c0,3-2.4,5.4-5.4,5.4
		h-12.4c-3,0-5.4-2.4-5.4-5.4v-13.5H194c-3,0-5.4-2.4-5.4-5.4v-12.4c0-3,2.4-5.4,5.4-5.4h13.5v-13.5c0-3,2.4-5.4,5.4-5.4h12.4
		c3,0,5.4,2.4,5.4,5.4v13.5L244.2,224.9L244.2,224.9z M284.3,163.3c-7.9,1-14.6-5.7-13.6-13.6c0.7-5.4,5-9.7,10.4-10.4
		c7.9-1,14.6,5.7,13.6,13.6C294,158.3,289.7,162.6,284.3,163.3z M376,240.5l-11.4,20.4c-0.3,0.4-0.7,0.8-1.2,0.9l-22.1,5.6
		c-0.2,0-0.3,0.1-0.5,0.1c-0.3,0-0.7-0.1-0.9-0.3l-19.7-11.5c-0.4-0.3-0.8-0.7-0.9-1.2l-5.3-22.7c-0.1-0.5,0-1,0.2-1.4l11.8-18.3
		c0.3-0.4,0.7-0.7,1.1-0.8l21.4-5.3c0.5-0.1,1,0,1.4,0.2l19.1,11c0.4,0.2,0.7,0.6,0.9,1.1l6.2,20.8
		C376.3,239.6,376.3,240.1,376,240.5z M443.4,170.9c-1.1,0.3-2.3,0.5-3.5,0.5c-1.7,0-3.3-0.4-4.8-0.9c-6.2,15.6-21.4,26.7-39.1,26.7
		c-10.7,0-20.5-4.1-28-10.7c-3.5,5-9.5,8.1-16.1,7.5c-8.3-0.8-15.1-7.4-16-15.6c-1.2-10.7,7.2-19.8,17.6-19.8c0.2,0,0.4,0,0.5,0.1
		c-0.1-1.1-0.2-2.3-0.2-3.5c0-10.1,3.6-19.3,9.5-26.6c-1.5-1.6-2.6-3.5-3.2-5.7c-1.9-7,2.3-14.3,9.3-16.2l0.7-0.2
		c11.4-3.5,11.4-3.5,22-5.9l0.5-0.1c1.1-0.3,2.2-0.4,3.2-0.4c6.2,0,11.4,3.9,12.9,9.7c0.5,1.8,0.6,3.6,0.3,5.4
		c6.2,2,11.7,5.4,16.2,9.8c1.4-1.2,3.1-2.1,5-2.6c1.1-0.3,2.3-0.5,3.5-0.5c6,0,11.2,4,12.8,9.8l0.2,0.6c3.5,11.5,3.5,11.5,5.9,22
		l0.1,0.6C454.5,161.9,450.3,169,443.4,170.9z"/>
	<rect x="230.2" y="78.2" class="st4" width="109" height="29"/>
	<circle class="st3" cx="282.7" cy="151.3" r="8.4"/>
	<path d="M427.2,161.5c0-0.2-0.1-0.3-0.1-0.5c0-0.1,0.1-7-1.1-11.5c-0.8-2.9-2.4-5.8-3.6-8c-0.8-1.4-1.3-2.3-1.5-3
		c-1-3.9-0.2-7.7,1.9-10.8c-4.1-4.1-9.2-7.2-14.9-9c-0.2,0.4-0.3,0.7-0.5,1.1c-1.8,3.1-4.6,5.3-8,6.2c-0.2,0-0.3,0.1-0.5,0.1l-0.6,0
		c-1.6,0-7.2,0.1-11,1.1c-2.9,0.8-5.8,2.4-8,3.6c-1.4,0.8-2.3,1.3-3,1.5c-1.1,0.3-2.3,0.5-3.5,0.5c-2.4,0-4.6-0.7-6.6-1.8
		c-5.4,6.6-8.7,15.1-8.7,24.3c0,1.4,0.1,2.7,0.2,4c7.7,1.9,13.4,8.9,13.4,17.1c0,2.4-0.5,4.7-1.4,6.9c6.8,6.4,16,10.3,26.1,10.3
		c16.4,0,30.4-10.3,35.8-24.8C429.6,166.8,428,164.4,427.2,161.5z M396.6,180.6c-13.5,0-24.4-11-24.4-24.4c0-13.5,11-24.4,24.4-24.4
		c13.5,0,24.4,11,24.4,24.4C421.1,169.6,410.1,180.6,396.6,180.6z"/>
	<path d="M325.3,86.8"/>
	<path class="st5" d="M396.6,135.4c-11.4,0-20.7,9.3-20.7,20.7c0,11.4,9.3,20.7,20.7,20.7c11.4,0,20.7-9.3,20.7-20.7
		C417.3,144.7,408,135.4,396.6,135.4z"/>
	<path class="st6" d="M348.8,209.8l-19.9,4.9l-11,17l4.9,21.2l18.3,10.7l20.6-5.2l10.6-19l-5.8-19.4L348.8,209.8z M345.2,255.5
		c-10.3,0-18.8-8.4-18.8-18.8c0-10.3,8.4-18.8,18.8-18.8c10.3,0,18.8,8.4,18.8,18.8C363.9,247,355.5,255.5,345.2,255.5z"/>
	<path d="M316.1,100.9"/>
	<path d="M312.4,100.9"/>
	<path d="M312,99.1"/>
	<path class="st6" d="M345.2,221.7c-8.3,0-15,6.7-15,15c0,8.3,6.7,15,15,15s15-6.7,15-15C360.2,228.4,353.4,221.7,345.2,221.7z"/>
	<path class="st7" d="M358.6,163.2c-1.2-0.5-2.6-0.8-4-0.9c-0.3,0-0.7-0.1-1-0.1c-7.7,0-14,6.3-14,14s6.3,14,14,14
		c4.9,0,9.3-2.6,11.8-6.5c0.7-1.1,1.3-2.4,1.6-3.7c0.3-1.2,0.6-2.5,0.6-3.8C367.6,170.3,363.8,165.2,358.6,163.2z"/>
	<path class="st3" d="M366,125.7c0.9,0.9,1.9,1.7,3,2.2c2,0.9,4.2,1.2,6.4,0.6c0.3-0.1,1.4-0.7,2.2-1.1c2.3-1.3,5.5-3,8.8-3.9
		c4.1-1.1,9.7-1.2,11.9-1.2l0.3,0c2.3-0.7,4.3-2.2,5.5-4.4c0-0.1,0.1-0.1,0.1-0.2c0.6-1.1,1-2.3,1.1-3.6c0.1-1.1,0-2.3-0.3-3.4
		c-1.1-4.2-4.9-7-9.3-7c-0.8,0-1.6,0.1-2.4,0.3l-0.5,0.1c-10.4,2.4-10.4,2.4-21.7,5.9l-0.7,0.2c-5.1,1.4-8.1,6.6-6.7,11.7
		C364.2,123.3,365,124.6,366,125.7z"/>
	<path class="st3" d="M449,155c-2.4-10.3-2.4-10.3-5.9-21.7l-0.2-0.6c-1.4-5-6.7-8.1-11.7-6.8c-1.3,0.3-2.4,0.9-3.4,1.7
		c-1,0.8-1.8,1.8-2.4,2.9c-1.1,2.1-1.5,4.6-0.9,7c0.1,0.3,0.7,1.4,1.1,2.2c1.3,2.3,3,5.5,3.9,8.8c1.2,4.5,1.2,10.9,1.2,12.3
		c0.4,1.5,1.2,2.7,2.3,3.8c0.9,1,2,1.7,3.3,2.2c1.9,0.8,4,1,6,0.5c5-1.3,7.9-6.5,6.7-11.7L449,155z"/>
</g>
<g id="Schrift">
	<g>
		<rect x="79" y="339.1" class="st8" width="428.2" height="174.2"/>
		<path d="M145.4,339.1c1.2,0.1,3.1,0.2,5.7,0.3c2.6,0.1,5.2,0.6,8,1.4c3.6,1,6.9,2.8,9.8,5.3c3,2.5,4.7,6.3,5.1,11.4
			c0,0.1,0,0.3,0,0.4c0,0.1,0,0.2,0.1,0.4c0,0.1,0,0.3,0,0.4c0,0.1,0,0.2,0,0.4c0,4-1.4,7.5-4.3,10.4c-2.9,2.9-6.8,4.5-11.6,4.9
			c0.1,0,0.1,0,0.2,0.1c0,0,0.1,0.1,0.2,0.1c4.3,1.2,8.2,3.2,11.8,5.9c3.6,2.7,5.4,6.8,5.4,12.3c0,7.1-2.5,12.2-7.6,15.3
			c-5.1,3-12.6,4.5-22.6,4.5h-32.6v-73.1H145.4z M143.8,367.7c3.2,0.1,5.4-0.5,6.8-1.7c1.3-1.2,2-3,2-5.4c0-2-0.8-3.6-2.3-5
			c-1.5-1.4-3.7-2.1-6.5-2.1l-10.3-0.1v14.3H143.8z M144.6,397.9c3,0.1,5.3-0.5,6.7-1.7c1.4-1.2,2.3-2.5,2.6-3.9
			c0.1-0.3,0.1-0.5,0.2-0.8c0-0.2,0.1-0.5,0.1-0.8c0-0.4,0-0.8-0.1-1.3c-0.1-0.4-0.2-0.9-0.4-1.4c-0.5-1.3-1.4-2.5-2.7-3.6
			c-1.3-1.1-3.1-1.7-5.5-1.7l-11.9-0.1v15H144.6z"/>
		<path d="M235.5,339.1v15h-34.9v14.3h32.6v15.2h-32.6v14.2h34.9v14.3h-55.7v-73.1H235.5z"/>
		<path d="M273.2,339.1c0.3,0.1,0.7,0.1,1,0.1s0.6,0,1,0c6.9,0.1,13.2,1.4,18.9,3.9c5.7,2.5,8.6,7.5,8.6,15.2c0,5.9-1.7,10.3-5.2,13
			c-3.4,2.7-7.5,4.5-12.3,5.3c7.2,0.3,11.7,2.7,13.4,7.3c1.7,4.6,2.8,9.6,3.4,14.9c0,0.1,0,0.3,0,0.4c0,0.1,0,0.3,0.1,0.4
			c0.2,2.2,0.5,4.4,0.8,6.6c0.3,2.2,0.8,4.2,1.5,6h-22.2c-0.5-1.2-0.9-2.7-1.1-4.4c-0.2-1.8-0.3-3.6-0.5-5.5c0-0.4,0-0.8-0.1-1.2
			c0-0.4-0.1-0.8-0.1-1.2c-0.3-3.9-0.9-7.5-2-10.7c-1.1-3.2-3.6-4.8-7.6-4.8l-9.5-0.1v27.9h-20.7v-73.1H273.2z M261.2,370.1h8
			c0.3,0.1,0.7,0.1,1,0.1c0.3,0,0.6,0,1,0c2.5-0.1,4.8-0.7,6.9-1.7c2.1-1,3.1-3.1,3.1-6.3c0-2.8-1.1-4.8-3.2-6.1
			c-2.2-1.3-4.8-1.9-8-1.9l-8.7-0.1V370.1z"/>
		<path d="M329.1,339.1v58h32.6v15.2h-53.3v-73.1H329.1z"/>
		<path d="M385.1,339.1v73.1h-20.7v-73.1H385.1z"/>
		<path d="M420.3,339.1l24.7,54v-54h18.3v73.1h-28.7L410,357.4v54.8h-18.3v-73.1H420.3z"/>
		<path d="M100.3,464.4H121c0,0.6,0,1.2,0.1,1.8c0.1,0.6,0.2,1.2,0.4,1.9c0.5,1.7,1.5,3.2,3.1,4.6c1.6,1.4,4.1,2.1,7.5,2.1
			c3.6,0,6.4-0.7,8.3-2.1c1.9-1.4,2.9-3,3-4.8c0-0.3,0-0.5-0.1-0.8c0-0.2-0.1-0.5-0.2-0.8c-0.5-1.5-1.7-3-3.6-4.4
			c-2-1.4-4.7-2.4-8.3-3.1c-0.1,0-0.3,0-0.4-0.1c-0.1,0-0.3-0.1-0.4-0.2c-10.8-2.4-18.1-5.1-22.1-8.1c-3.9-3.1-6.1-7.7-6.5-14
			c0-0.2,0-0.4,0-0.6s0-0.4,0-0.5c-0.1-7.2,2.9-12.7,9-16.4c6.1-3.7,13.4-5.6,22-5.6c11.9,0.4,19.8,2.7,23.7,7
			c3.9,4.3,5.8,9.6,5.8,16l-20.7-0.1c0-2.3-0.8-4.2-2.4-5.7c-1.6-1.5-4-2.2-7.2-2.2c-2.8,0-5,0.7-6.4,2c-1.4,1.3-2.2,2.8-2.3,4.4
			c0,0.1,0,0.3,0,0.4c0,0.1,0,0.2,0,0.4c0.2,1.4,1,2.8,2.5,4c1.4,1.3,3.5,2.1,6.2,2.4c1.5,0.3,3.1,0.6,4.7,0.9
			c1.6,0.3,3.3,0.7,4.9,1.1c5.7,1.3,11,3.5,15.8,6.5c4.8,3,7.2,7.9,7.2,14.7c0,8.8-3.1,15-9.3,18.8c-6.2,3.8-13.7,5.7-22.5,5.7
			c-10.7,0-18.7-2.1-24-6.4c-5.3-4.3-8.2-10.6-8.6-18.9V464.4z"/>
		<path d="M202.4,415.1l11.1,48.5l11.1-48.5h31.8v73.1H239v-61.2l-16.7,61.2h-19.1l-16-61.2v61.2h-17.5v-73.1H202.4z"/>
		<path d="M312.4,415.1l28.7,73.1h-23l-4.8-13.5h-28.6l-4.7,13.5h-21.5l29.4-73.1H312.4z M299,430.2l-9.6,29.5h18.3L299,430.2z"/>
		<path d="M340.6,464.4h20.7c0,0.6,0,1.2,0.1,1.8c0.1,0.6,0.2,1.2,0.4,1.9c0.5,1.7,1.5,3.2,3.1,4.6c1.6,1.4,4.1,2.1,7.5,2.1
			c3.6,0,6.4-0.7,8.3-2.1c1.9-1.4,2.9-3,3-4.8c0-0.3,0-0.5-0.1-0.8c0-0.2-0.1-0.5-0.2-0.8c-0.5-1.5-1.7-3-3.6-4.4
			c-2-1.4-4.7-2.4-8.3-3.1c-0.1,0-0.3,0-0.4-0.1c-0.1,0-0.3-0.1-0.4-0.2c-10.8-2.4-18.1-5.1-22.1-8.1c-3.9-3.1-6.1-7.7-6.5-14
			c0-0.2,0-0.4,0-0.6s0-0.4,0-0.5c-0.1-7.2,2.9-12.7,9-16.4c6.1-3.7,13.4-5.6,22-5.6c11.9,0.4,19.8,2.7,23.7,7
			c3.9,4.3,5.8,9.6,5.8,16l-20.7-0.1c0-2.3-0.8-4.2-2.4-5.7c-1.6-1.5-4-2.2-7.2-2.2c-2.8,0-5,0.7-6.4,2c-1.4,1.3-2.2,2.8-2.3,4.4
			c0,0.1,0,0.3,0,0.4c0,0.1,0,0.2,0,0.4c0.2,1.4,1,2.8,2.5,4c1.4,1.3,3.5,2.1,6.2,2.4c1.5,0.3,3.1,0.6,4.7,0.9
			c1.6,0.3,3.3,0.7,4.9,1.1c5.7,1.3,11,3.5,15.8,6.5c4.8,3,7.2,7.9,7.2,14.7c0,8.8-3.1,15-9.3,18.8c-6.2,3.8-13.7,5.7-22.5,5.7
			c-10.7,0-18.7-2.1-24-6.4c-5.3-4.3-8.2-10.6-8.6-18.9V464.4z"/>
		<path d="M430.8,415.1v29.4h24.6v-29.4h20.7v73.1h-20.7v-29.4h-24.6v29.4h-20.7v-73.1H430.8z"/>
	</g>
	<g>
		<rect x="73" y="332.1" class="st8" width="428.2" height="174.2"/>
		<path class="st9" d="M139.4,332.1c1.2,0.1,3.1,0.2,5.7,0.3c2.6,0.1,5.2,0.6,8,1.4c3.6,1,6.9,2.8,9.8,5.3c3,2.5,4.7,6.3,5.1,11.4
			c0,0.1,0,0.3,0,0.4c0,0.1,0,0.2,0.1,0.4c0,0.1,0,0.3,0,0.4c0,0.1,0,0.2,0,0.4c0,4-1.4,7.5-4.3,10.4c-2.9,2.9-6.8,4.5-11.6,4.9
			c0.1,0,0.1,0,0.2,0.1c0,0,0.1,0.1,0.2,0.1c4.3,1.2,8.2,3.2,11.8,5.9c3.6,2.7,5.4,6.8,5.4,12.3c0,7.1-2.5,12.2-7.6,15.3
			c-5.1,3-12.6,4.5-22.6,4.5h-32.6v-73.1H139.4z M137.8,360.7c3.2,0.1,5.4-0.5,6.8-1.7c1.3-1.2,2-3,2-5.4c0-2-0.8-3.6-2.3-5
			c-1.5-1.4-3.7-2.1-6.5-2.1l-10.3-0.1v14.3H137.8z M138.6,390.9c3,0.1,5.3-0.5,6.7-1.7c1.4-1.2,2.3-2.5,2.6-3.9
			c0.1-0.3,0.1-0.5,0.2-0.8c0-0.2,0.1-0.5,0.1-0.8c0-0.4,0-0.8-0.1-1.3c-0.1-0.4-0.2-0.9-0.4-1.4c-0.5-1.3-1.4-2.5-2.7-3.6
			c-1.3-1.1-3.1-1.7-5.5-1.7l-11.9-0.1v15H138.6z"/>
		<path class="st9" d="M229.5,332.1v15h-34.9v14.3h32.6v15.2h-32.6v14.2h34.9v14.3h-55.7v-73.1H229.5z"/>
		<path class="st9" d="M267.2,332.1c0.3,0.1,0.7,0.1,1,0.1s0.6,0,1,0c6.9,0.1,13.2,1.4,18.9,3.9c5.7,2.5,8.6,7.5,8.6,15.2
			c0,5.9-1.7,10.3-5.2,13c-3.4,2.7-7.5,4.5-12.3,5.3c7.2,0.3,11.7,2.7,13.4,7.3c1.7,4.6,2.8,9.6,3.4,14.9c0,0.1,0,0.3,0,0.4
			c0,0.1,0,0.3,0.1,0.4c0.2,2.2,0.5,4.4,0.8,6.6c0.3,2.2,0.8,4.2,1.5,6h-22.2c-0.5-1.2-0.9-2.7-1.1-4.4c-0.2-1.8-0.3-3.6-0.5-5.5
			c0-0.4,0-0.8-0.1-1.2c0-0.4-0.1-0.8-0.1-1.2c-0.3-3.9-0.9-7.5-2-10.7c-1.1-3.2-3.6-4.8-7.6-4.8l-9.5-0.1v27.9h-20.7v-73.1H267.2z
			 M255.2,363.1h8c0.3,0.1,0.7,0.1,1,0.1c0.3,0,0.6,0,1,0c2.5-0.1,4.8-0.7,6.9-1.7c2.1-1,3.1-3.1,3.1-6.3c0-2.8-1.1-4.8-3.2-6.1
			c-2.2-1.3-4.8-1.9-8-1.9l-8.7-0.1V363.1z"/>
		<path class="st9" d="M323.1,332.1v58h32.6v15.2h-53.3v-73.1H323.1z"/>
		<path class="st9" d="M379.1,332.1v73.1h-20.7v-73.1H379.1z"/>
		<path class="st9" d="M414.3,332.1l24.7,54v-54h18.3v73.1h-28.7L404,350.4v54.8h-18.3v-73.1H414.3z"/>
		<path class="st9" d="M94.3,457.4H115c0,0.6,0,1.2,0.1,1.8c0.1,0.6,0.2,1.2,0.4,1.9c0.5,1.7,1.5,3.2,3.1,4.6
			c1.6,1.4,4.1,2.1,7.5,2.1c3.6,0,6.4-0.7,8.3-2.1c1.9-1.4,2.9-3,3-4.8c0-0.3,0-0.5-0.1-0.8c0-0.2-0.1-0.5-0.2-0.8
			c-0.5-1.5-1.7-3-3.6-4.4c-2-1.4-4.7-2.4-8.3-3.1c-0.1,0-0.3,0-0.4-0.1c-0.1,0-0.3-0.1-0.4-0.2c-10.8-2.4-18.1-5.1-22.1-8.1
			c-3.9-3.1-6.1-7.7-6.5-14c0-0.2,0-0.4,0-0.6s0-0.4,0-0.5c-0.1-7.2,2.9-12.7,9-16.4c6.1-3.7,13.4-5.6,22-5.6
			c11.9,0.4,19.8,2.7,23.7,7c3.9,4.3,5.8,9.6,5.8,16l-20.7-0.1c0-2.3-0.8-4.2-2.4-5.7c-1.6-1.5-4-2.2-7.2-2.2c-2.8,0-5,0.7-6.4,2
			c-1.4,1.3-2.2,2.8-2.3,4.4c0,0.1,0,0.3,0,0.4c0,0.1,0,0.2,0,0.4c0.2,1.4,1,2.8,2.5,4c1.4,1.3,3.5,2.1,6.2,2.4
			c1.5,0.3,3.1,0.6,4.7,0.9c1.6,0.3,3.3,0.7,4.9,1.1c5.7,1.3,11,3.5,15.8,6.5c4.8,3,7.2,7.9,7.2,14.7c0,8.8-3.1,15-9.3,18.8
			c-6.2,3.8-13.7,5.7-22.5,5.7c-10.7,0-18.7-2.1-24-6.4c-5.3-4.3-8.2-10.6-8.6-18.9V457.4z"/>
		<path class="st9" d="M196.4,408.1l11.1,48.5l11.1-48.5h31.8v73.1H233v-61.2l-16.7,61.2h-19.1l-16-61.2v61.2h-17.5v-73.1H196.4z"/>
		<path class="st9" d="M306.4,408.1l28.7,73.1h-23l-4.8-13.5h-28.6l-4.7,13.5h-21.5l29.4-73.1H306.4z M293,423.2l-9.6,29.5h18.3
			L293,423.2z"/>
		<path class="st9" d="M334.6,457.4h20.7c0,0.6,0,1.2,0.1,1.8c0.1,0.6,0.2,1.2,0.4,1.9c0.5,1.7,1.5,3.2,3.1,4.6
			c1.6,1.4,4.1,2.1,7.5,2.1c3.6,0,6.4-0.7,8.3-2.1c1.9-1.4,2.9-3,3-4.8c0-0.3,0-0.5-0.1-0.8c0-0.2-0.1-0.5-0.2-0.8
			c-0.5-1.5-1.7-3-3.6-4.4c-2-1.4-4.7-2.4-8.3-3.1c-0.1,0-0.3,0-0.4-0.1c-0.1,0-0.3-0.1-0.4-0.2c-10.8-2.4-18.1-5.1-22.1-8.1
			c-3.9-3.1-6.1-7.7-6.5-14c0-0.2,0-0.4,0-0.6s0-0.4,0-0.5c-0.1-7.2,2.9-12.7,9-16.4c6.1-3.7,13.4-5.6,22-5.6
			c11.9,0.4,19.8,2.7,23.7,7c3.9,4.3,5.8,9.6,5.8,16l-20.7-0.1c0-2.3-0.8-4.2-2.4-5.7c-1.6-1.5-4-2.2-7.2-2.2c-2.8,0-5,0.7-6.4,2
			c-1.4,1.3-2.2,2.8-2.3,4.4c0,0.1,0,0.3,0,0.4c0,0.1,0,0.2,0,0.4c0.2,1.4,1,2.8,2.5,4c1.4,1.3,3.5,2.1,6.2,2.4
			c1.5,0.3,3.1,0.6,4.7,0.9c1.6,0.3,3.3,0.7,4.9,1.1c5.7,1.3,11,3.5,15.8,6.5c4.8,3,7.2,7.9,7.2,14.7c0,8.8-3.1,15-9.3,18.8
			c-6.2,3.8-13.7,5.7-22.5,5.7c-10.7,0-18.7-2.1-24-6.4c-5.3-4.3-8.2-10.6-8.6-18.9V457.4z"/>
		<path class="st9" d="M424.8,408.1v29.4h24.6v-29.4h20.7v73.1h-20.7v-29.4h-24.6v29.4h-20.7v-73.1H424.8z"/>
	</g>
	<g>
	</g>
	<g>
	</g>
	<g>
	</g>
	<g>
	</g>
	<g>
	</g>
	<g>
	</g>
	<g>
	</g>
	<g>
	</g>
	<g>
	</g>
	<g>
	</g>
	<g>
	</g>
	<g>
	</g>
	<g>
	</g>
	<g>
	</g>
	<g>
	</g>
</g>
</svg>
