<?xml version="1.0" encoding="UTF-8" standalone="no"?>
<!-- Generator: Adobe Illustrator 24.0.0, SVG Export Plug-In . SVG Version: 6.00 Build 0)  -->

<svg
   xmlns:dc="http://purl.org/dc/elements/1.1/"
   xmlns:cc="http://creativecommons.org/ns#"
   xmlns:rdf="http://www.w3.org/1999/02/22-rdf-syntax-ns#"
   xmlns:svg="http://www.w3.org/2000/svg"
   xmlns="http://www.w3.org/2000/svg"
   xmlns:sodipodi="http://sodipodi.sourceforge.net/DTD/sodipodi-0.dtd"
   xmlns:inkscape="http://www.inkscape.org/namespaces/inkscape"
   version="1.1"
   x="0px"
   y="0px"
   viewBox="0 0 567.4 567.4"
   style="enable-background:new 0 0 567.4 567.4;"
   xml:space="preserve"
   id="svg127"
   sodipodi:docname="berlinsmash.svg"
   inkscape:version="0.92.4 (5da689c313, 2019-01-14)"><metadata
   id="metadata133"><rdf:RDF><cc:Work
       rdf:about=""><dc:format>image/svg+xml</dc:format><dc:type
         rdf:resource="http://purl.org/dc/dcmitype/StillImage" /><dc:title></dc:title></cc:Work></rdf:RDF></metadata><defs
   id="defs131" /><sodipodi:namedview
   pagecolor="#ffffff"
   bordercolor="#666666"
   borderopacity="1"
   objecttolerance="10"
   gridtolerance="10"
   guidetolerance="10"
   inkscape:pageopacity="0"
   inkscape:pageshadow="2"
   inkscape:window-width="1920"
   inkscape:window-height="1017"
   id="namedview129"
   showgrid="false"
   inkscape:zoom="0.4159323"
   inkscape:cx="-15.627543"
   inkscape:cy="283.70001"
   inkscape:window-x="-8"
   inkscape:window-y="-8"
   inkscape:window-maximized="1"
   inkscape:current-layer="GC_Controller" />
<style
   type="text/css"
   id="style2">
	.st0{display:none;opacity:0.25;fill-rule:evenodd;clip-rule:evenodd;}
	.st1{fill-rule:evenodd;clip-rule:evenodd;fill:none;stroke:#000000;stroke-width:9;stroke-miterlimit:10;}
	.st2{fill:#919191;}
	.st3{fill:#CDCDCD;}
	.st4{display:none;}
	.st5{fill:#2AA9A2;}
	.st6{fill:#DDCB3B;}
	.st7{fill:#E73148;}
	.st8{fill:none;}
	.st9{fill:#E20500;}
</style>
<g
   id="Kreis">
	<circle
   class="st0"
   cx="283.7"
   cy="283.7"
   r="279.2"
   id="circle4" />
	<circle
   class="st1"
   cx="283.7"
   cy="283.7"
   r="279.2"
   id="circle6" />
</g>
<g
   id="GC_Controller">
	<path
   class="st2"
   d="m 167.7,110.7 c -23.3,0 -42.2,18.9 -42.2,42.2 0,23.3 18.9,42.2 42.2,42.2 23.3,0 42.2,-18.9 42.2,-42.2 0,-23.3 -18.9,-42.2 -42.2,-42.2 z m 0,67.4 c -13.9,0 -25.1,-11.3 -25.1,-25.2 0,-13.9 11.3,-25.2 25.1,-25.2 13.9,0 25.1,11.3 25.1,25.2 0.1,13.9 -11.2,25.2 -25.1,25.2 z"
   id="path9"
   inkscape:connector-curvature="0"
   style="fill:#919191" />
	<path
   class="st3"
   d="m 167.7,131.5 c -11.8,0 -21.4,9.6 -21.4,21.4 0,11.8 9.6,21.4 21.4,21.4 11.8,0 21.4,-9.6 21.4,-21.4 0,-11.7 -9.6,-21.4 -21.4,-21.4 z"
   id="path11"
   inkscape:connector-curvature="0"
   style="fill:#cdcdcd" />
	<path
   class="st3"
   d="m 227.1,211.3 c 0,-0.9 -0.7,-1.7 -1.7,-1.7 h -12.6 c -0.9,0 -1.7,0.7 -1.7,1.7 v 17.3 h -17.3 c -0.9,0 -1.7,0.7 -1.7,1.7 v 12.6 c 0,0.9 0.7,1.7 1.7,1.7 h 17.3 v 17.3 c 0,0.9 0.7,1.7 1.7,1.7 h 12.6 c 0.9,0 1.7,-0.7 1.7,-1.7 v -17.3 h 17.3 c 0.9,0 1.7,-0.7 1.7,-1.7 v -12.6 c 0,-0.9 -0.7,-1.7 -1.7,-1.7 h -17.3 z"
   id="path13"
   inkscape:connector-curvature="0"
   style="fill:#cdcdcd" />
	<path
   d="m 429.8,98.1 c 0,0 -5.6,-29.2 -47.2,-20.8 0,0 -23.9,-13 -87.2,-15.2 3.1,-15.8 22.7,-12.2 33.5,-19.9 9.1,-6.5 13.8,-17.9 12.8,-28.9 -0.9,-9.5 -15.8,-9.6 -14.9,0 0.7,7.2 -1.6,13.3 -7.7,17.6 -6.1,4.3 -14.9,2.6 -21.5,6.2 -9.9,5.4 -15.4,14 -17.1,24.8 -71.2,1 -97.8,15.5 -97.8,15.5 -41.5,-8.4 -47.2,20.8 -47.2,20.8 -41.2,27.5 -29.2,78.2 -29.2,78.2 -4.2,51.4 -5.8,146 28.5,146 34.3,0 34.1,-88.7 34.1,-88.7 0,0 6,9.9 10.6,22.9 4.6,13 38.7,48.6 75.7,9.5 37,-39.1 -14.1,-78.2 -14.1,-78.2 v -6.2 c 12.3,-3.4 41.5,-4 41.5,-4 0,0 29.2,0.6 41.5,4 v 6.2 c 0,0 -51,39.1 -14.1,78.2 36.9,39.1 71.1,3.5 75.7,-9.5 4.6,-13 10.6,-22.9 10.6,-22.9 0,0 -0.2,88.7 34.1,88.7 34.3,0 32.7,-94.6 28.5,-146 0.2,-0.2 12.1,-50.9 -29.1,-78.3 z M 171.9,198.7 c -28.6,2.6 -52.5,-21.3 -50,-50 2,-21.9 19.6,-39.6 41.6,-41.6 28.6,-2.5 52.5,21.3 50,50 -2,22 -19.7,39.7 -41.6,41.6 z m 72.3,26.2 c 3,0 5.5,2.4 5.5,5.3 v 12.5 c 0,3 -2.4,5.4 -5.4,5.4 h -13.5 v 13.5 c 0,3 -2.4,5.4 -5.4,5.4 H 213 c -3,0 -5.4,-2.4 -5.4,-5.4 V 248.1 H 194 c -3,0 -5.4,-2.4 -5.4,-5.4 v -12.4 c 0,-3 2.4,-5.4 5.4,-5.4 h 13.5 v -13.5 c 0,-3 2.4,-5.4 5.4,-5.4 h 12.4 c 3,0 5.4,2.4 5.4,5.4 v 13.5 z m 40.1,-61.6 c -7.9,1 -14.6,-5.7 -13.6,-13.6 0.7,-5.4 5,-9.7 10.4,-10.4 7.9,-1 14.6,5.7 13.6,13.6 -0.7,5.4 -5,9.7 -10.4,10.4 z m 91.7,77.2 -11.4,20.4 c -0.3,0.4 -0.7,0.8 -1.2,0.9 l -22.1,5.6 c -0.2,0 -0.3,0.1 -0.5,0.1 -0.3,0 -0.7,-0.1 -0.9,-0.3 l -19.7,-11.5 c -0.4,-0.3 -0.8,-0.7 -0.9,-1.2 L 314,231.8 c -0.1,-0.5 0,-1 0.2,-1.4 L 326,212.1 c 0.3,-0.4 0.7,-0.7 1.1,-0.8 l 21.4,-5.3 c 0.5,-0.1 1,0 1.4,0.2 l 19.1,11 c 0.4,0.2 0.7,0.6 0.9,1.1 l 6.2,20.8 c 0.2,0.5 0.2,1 -0.1,1.4 z m 67.4,-69.6 c -1.1,0.3 -2.3,0.5 -3.5,0.5 -1.7,0 -3.3,-0.4 -4.8,-0.9 -6.2,15.6 -21.4,26.7 -39.1,26.7 -10.7,0 -20.5,-4.1 -28,-10.7 -3.5,5 -9.5,8.1 -16.1,7.5 -8.3,-0.8 -15.1,-7.4 -16,-15.6 -1.2,-10.7 7.2,-19.8 17.6,-19.8 0.2,0 0.4,0 0.5,0.1 -0.1,-1.1 -0.2,-2.3 -0.2,-3.5 0,-10.1 3.6,-19.3 9.5,-26.6 -1.5,-1.6 -2.6,-3.5 -3.2,-5.7 -1.9,-7 2.3,-14.3 9.3,-16.2 l 0.7,-0.2 c 11.4,-3.5 11.4,-3.5 22,-5.9 l 0.5,-0.1 c 1.1,-0.3 2.2,-0.4 3.2,-0.4 6.2,0 11.4,3.9 12.9,9.7 0.5,1.8 0.6,3.6 0.3,5.4 6.2,2 11.7,5.4 16.2,9.8 1.4,-1.2 3.1,-2.1 5,-2.6 1.1,-0.3 2.3,-0.5 3.5,-0.5 6,0 11.2,4 12.8,9.8 l 0.2,0.6 c 3.5,11.5 3.5,11.5 5.9,22 l 0.1,0.6 c 1.8,7 -2.4,14.1 -9.3,16 z"
   id="path15"
   inkscape:connector-curvature="0" />
	
	<circle
   class="st3"
   cx="282.70001"
   cy="151.3"
   r="8.3999996"
   id="circle19"
   style="fill:#cdcdcd" />
	<path
   d="m 427.2,161.5 c 0,-0.2 -0.1,-0.3 -0.1,-0.5 0,-0.1 0.1,-7 -1.1,-11.5 -0.8,-2.9 -2.4,-5.8 -3.6,-8 -0.8,-1.4 -1.3,-2.3 -1.5,-3 -1,-3.9 -0.2,-7.7 1.9,-10.8 -4.1,-4.1 -9.2,-7.2 -14.9,-9 -0.2,0.4 -0.3,0.7 -0.5,1.1 -1.8,3.1 -4.6,5.3 -8,6.2 -0.2,0 -0.3,0.1 -0.5,0.1 h -0.6 c -1.6,0 -7.2,0.1 -11,1.1 -2.9,0.8 -5.8,2.4 -8,3.6 -1.4,0.8 -2.3,1.3 -3,1.5 -1.1,0.3 -2.3,0.5 -3.5,0.5 -2.4,0 -4.6,-0.7 -6.6,-1.8 -5.4,6.6 -8.7,15.1 -8.7,24.3 0,1.4 0.1,2.7 0.2,4 7.7,1.9 13.4,8.9 13.4,17.1 0,2.4 -0.5,4.7 -1.4,6.9 6.8,6.4 16,10.3 26.1,10.3 16.4,0 30.4,-10.3 35.8,-24.8 -2,-2 -3.6,-4.4 -4.4,-7.3 z m -30.6,19.1 c -13.5,0 -24.4,-11 -24.4,-24.4 0,-13.5 11,-24.4 24.4,-24.4 13.5,0 24.4,11 24.4,24.4 0.1,13.4 -10.9,24.4 -24.4,24.4 z"
   id="path21"
   inkscape:connector-curvature="0" />
	<path
   d="M 325.3,86.8"
   id="path23"
   inkscape:connector-curvature="0" />
	<path
   class="st5"
   d="m 396.6,135.4 c -11.4,0 -20.7,9.3 -20.7,20.7 0,11.4 9.3,20.7 20.7,20.7 11.4,0 20.7,-9.3 20.7,-20.7 0,-11.4 -9.3,-20.7 -20.7,-20.7 z"
   id="path25"
   inkscape:connector-curvature="0"
   style="fill:#2aa9a2" />
	<path
   class="st6"
   d="m 348.8,209.8 -19.9,4.9 -11,17 4.9,21.2 18.3,10.7 20.6,-5.2 10.6,-19 -5.8,-19.4 z m -3.6,45.7 c -10.3,0 -18.8,-8.4 -18.8,-18.8 0,-10.3 8.4,-18.8 18.8,-18.8 10.3,0 18.8,8.4 18.8,18.8 -0.1,10.3 -8.5,18.8 -18.8,18.8 z"
   id="path27"
   inkscape:connector-curvature="0"
   style="fill:#ddcb3b" />
	<path
   d="M 316.1,100.9"
   id="path29"
   inkscape:connector-curvature="0" />
	<path
   d="M 312.4,100.9"
   id="path31"
   inkscape:connector-curvature="0" />
	<path
   d="M 312,99.1"
   id="path33"
   inkscape:connector-curvature="0" />
	<path
   class="st6"
   d="m 345.2,221.7 c -8.3,0 -15,6.7 -15,15 0,8.3 6.7,15 15,15 8.3,0 15,-6.7 15,-15 0,-8.3 -6.8,-15 -15,-15 z"
   id="path35"
   inkscape:connector-curvature="0"
   style="fill:#ddcb3b" />
	<path
   class="st7"
   d="m 358.6,163.2 c -1.2,-0.5 -2.6,-0.8 -4,-0.9 -0.3,0 -0.7,-0.1 -1,-0.1 -7.7,0 -14,6.3 -14,14 0,7.7 6.3,14 14,14 4.9,0 9.3,-2.6 11.8,-6.5 0.7,-1.1 1.3,-2.4 1.6,-3.7 0.3,-1.2 0.6,-2.5 0.6,-3.8 0,-5.9 -3.8,-11 -9,-13 z"
   id="path37"
   inkscape:connector-curvature="0"
   style="fill:#e73148" />
	<path
   class="st3"
   d="m 366,125.7 c 0.9,0.9 1.9,1.7 3,2.2 2,0.9 4.2,1.2 6.4,0.6 0.3,-0.1 1.4,-0.7 2.2,-1.1 2.3,-1.3 5.5,-3 8.8,-3.9 4.1,-1.1 9.7,-1.2 11.9,-1.2 h 0.3 c 2.3,-0.7 4.3,-2.2 5.5,-4.4 0,-0.1 0.1,-0.1 0.1,-0.2 0.6,-1.1 1,-2.3 1.1,-3.6 0.1,-1.1 0,-2.3 -0.3,-3.4 -1.1,-4.2 -4.9,-7 -9.3,-7 -0.8,0 -1.6,0.1 -2.4,0.3 l -0.5,0.1 c -10.4,2.4 -10.4,2.4 -21.7,5.9 l -0.7,0.2 c -5.1,1.4 -8.1,6.6 -6.7,11.7 0.5,1.4 1.3,2.7 2.3,3.8 z"
   id="path39"
   inkscape:connector-curvature="0"
   style="fill:#cdcdcd" />
	<path
   class="st3"
   d="m 449,155 c -2.4,-10.3 -2.4,-10.3 -5.9,-21.7 l -0.2,-0.6 c -1.4,-5 -6.7,-8.1 -11.7,-6.8 -1.3,0.3 -2.4,0.9 -3.4,1.7 -1,0.8 -1.8,1.8 -2.4,2.9 -1.1,2.1 -1.5,4.6 -0.9,7 0.1,0.3 0.7,1.4 1.1,2.2 1.3,2.3 3,5.5 3.9,8.8 1.2,4.5 1.2,10.9 1.2,12.3 0.4,1.5 1.2,2.7 2.3,3.8 0.9,1 2,1.7 3.3,2.2 1.9,0.8 4,1 6,0.5 5,-1.3 7.9,-6.5 6.7,-11.7 z"
   id="path41"
   inkscape:connector-curvature="0"
   style="fill:#cdcdcd" />
</g>
<g
   id="Schrift">
	<g
   id="g68">
		<rect
   x="79"
   y="339.1"
   class="st8"
   width="428.2"
   height="174.2"
   id="rect44" />
		<path
   d="M145.4,339.1c1.2,0.1,3.1,0.2,5.7,0.3c2.6,0.1,5.2,0.6,8,1.4c3.6,1,6.9,2.8,9.8,5.3c3,2.5,4.7,6.3,5.1,11.4    c0,0.1,0,0.3,0,0.4c0,0.1,0,0.2,0.1,0.4c0,0.1,0,0.3,0,0.4c0,0.1,0,0.2,0,0.4c0,4-1.4,7.5-4.3,10.4c-2.9,2.9-6.8,4.5-11.6,4.9    c0.1,0,0.1,0,0.2,0.1c0,0,0.1,0.1,0.2,0.1c4.3,1.2,8.2,3.2,11.8,5.9c3.6,2.7,5.4,6.8,5.4,12.3c0,7.1-2.5,12.2-7.6,15.3    c-5.1,3-12.6,4.5-22.6,4.5h-32.6v-73.1H145.4z M143.8,367.7c3.2,0.1,5.4-0.5,6.8-1.7c1.3-1.2,2-3,2-5.4c0-2-0.8-3.6-2.3-5    c-1.5-1.4-3.7-2.1-6.5-2.1l-10.3-0.1v14.3H143.8z M144.6,397.9c3,0.1,5.3-0.5,6.7-1.7c1.4-1.2,2.3-2.5,2.6-3.9    c0.1-0.3,0.1-0.5,0.2-0.8c0-0.2,0.1-0.5,0.1-0.8c0-0.4,0-0.8-0.1-1.3c-0.1-0.4-0.2-0.9-0.4-1.4c-0.5-1.3-1.4-2.5-2.7-3.6    c-1.3-1.1-3.1-1.7-5.5-1.7l-11.9-0.1v15H144.6z"
   id="path46" />
		<path
   d="M235.5,339.1v15h-34.9v14.3h32.6v15.2h-32.6v14.2h34.9v14.3h-55.7v-73.1H235.5z"
   id="path48" />
		<path
   d="M273.2,339.1c0.3,0.1,0.7,0.1,1,0.1s0.6,0,1,0c6.9,0.1,13.2,1.4,18.9,3.9c5.7,2.5,8.6,7.5,8.6,15.2c0,5.9-1.7,10.3-5.2,13    c-3.4,2.7-7.5,4.5-12.3,5.3c7.2,0.3,11.7,2.7,13.4,7.3c1.7,4.6,2.8,9.6,3.4,14.9c0,0.1,0,0.3,0,0.4c0,0.1,0,0.3,0.1,0.4    c0.2,2.2,0.5,4.4,0.8,6.6c0.3,2.2,0.8,4.2,1.5,6h-22.2c-0.5-1.2-0.9-2.7-1.1-4.4c-0.2-1.8-0.3-3.6-0.5-5.5c0-0.4,0-0.8-0.1-1.2    c0-0.4-0.1-0.8-0.1-1.2c-0.3-3.9-0.9-7.5-2-10.7c-1.1-3.2-3.6-4.8-7.6-4.8l-9.5-0.1v27.9h-20.7v-73.1H273.2z M261.2,370.1h8    c0.3,0.1,0.7,0.1,1,0.1c0.3,0,0.6,0,1,0c2.5-0.1,4.8-0.7,6.9-1.7c2.1-1,3.1-3.1,3.1-6.3c0-2.8-1.1-4.8-3.2-6.1    c-2.2-1.3-4.8-1.9-8-1.9l-8.7-0.1V370.1z"
   id="path50" />
		<path
   d="M329.1,339.1v58h32.6v15.2h-53.3v-73.1H329.1z"
   id="path52" />
		<path
   d="M385.1,339.1v73.1h-20.7v-73.1H385.1z"
   id="path54" />
		<path
   d="M420.3,339.1l24.7,54v-54h18.3v73.1h-28.7L410,357.4v54.8h-18.3v-73.1H420.3z"
   id="path56" />
		<path
   d="M100.3,464.4H121c0,0.6,0,1.2,0.1,1.8c0.1,0.6,0.2,1.2,0.4,1.9c0.5,1.7,1.5,3.2,3.1,4.6c1.6,1.4,4.1,2.1,7.5,2.1    c3.6,0,6.4-0.7,8.3-2.1c1.9-1.4,2.9-3,3-4.8c0-0.3,0-0.5-0.1-0.8c0-0.2-0.1-0.5-0.2-0.8c-0.5-1.5-1.7-3-3.6-4.4    c-2-1.4-4.7-2.4-8.3-3.1c-0.1,0-0.3,0-0.4-0.1c-0.1,0-0.3-0.1-0.4-0.2c-10.8-2.4-18.1-5.1-22.1-8.1c-3.9-3.1-6.1-7.7-6.5-14    c0-0.2,0-0.4,0-0.6s0-0.4,0-0.5c-0.1-7.2,2.9-12.7,9-16.4c6.1-3.7,13.4-5.6,22-5.6c11.9,0.4,19.8,2.7,23.7,7    c3.9,4.3,5.8,9.6,5.8,16l-20.7-0.1c0-2.3-0.8-4.2-2.4-5.7c-1.6-1.5-4-2.2-7.2-2.2c-2.8,0-5,0.7-6.4,2c-1.4,1.3-2.2,2.8-2.3,4.4    c0,0.1,0,0.3,0,0.4c0,0.1,0,0.2,0,0.4c0.2,1.4,1,2.8,2.5,4c1.4,1.3,3.5,2.1,6.2,2.4c1.5,0.3,3.1,0.6,4.7,0.9    c1.6,0.3,3.3,0.7,4.9,1.1c5.7,1.3,11,3.5,15.8,6.5c4.8,3,7.2,7.9,7.2,14.7c0,8.8-3.1,15-9.3,18.8c-6.2,3.8-13.7,5.7-22.5,5.7    c-10.7,0-18.7-2.1-24-6.4c-5.3-4.3-8.2-10.6-8.6-18.9V464.4z"
   id="path58" />
		<path
   d="M202.4,415.1l11.1,48.5l11.1-48.5h31.8v73.1H239v-61.2l-16.7,61.2h-19.1l-16-61.2v61.2h-17.5v-73.1H202.4z"
   id="path60" />
		<path
   d="M312.4,415.1l28.7,73.1h-23l-4.8-13.5h-28.6l-4.7,13.5h-21.5l29.4-73.1H312.4z M299,430.2l-9.6,29.5h18.3L299,430.2z"
   id="path62" />
		<path
   d="M340.6,464.4h20.7c0,0.6,0,1.2,0.1,1.8c0.1,0.6,0.2,1.2,0.4,1.9c0.5,1.7,1.5,3.2,3.1,4.6c1.6,1.4,4.1,2.1,7.5,2.1    c3.6,0,6.4-0.7,8.3-2.1c1.9-1.4,2.9-3,3-4.8c0-0.3,0-0.5-0.1-0.8c0-0.2-0.1-0.5-0.2-0.8c-0.5-1.5-1.7-3-3.6-4.4    c-2-1.4-4.7-2.4-8.3-3.1c-0.1,0-0.3,0-0.4-0.1c-0.1,0-0.3-0.1-0.4-0.2c-10.8-2.4-18.1-5.1-22.1-8.1c-3.9-3.1-6.1-7.7-6.5-14    c0-0.2,0-0.4,0-0.6s0-0.4,0-0.5c-0.1-7.2,2.9-12.7,9-16.4c6.1-3.7,13.4-5.6,22-5.6c11.9,0.4,19.8,2.7,23.7,7    c3.9,4.3,5.8,9.6,5.8,16l-20.7-0.1c0-2.3-0.8-4.2-2.4-5.7c-1.6-1.5-4-2.2-7.2-2.2c-2.8,0-5,0.7-6.4,2c-1.4,1.3-2.2,2.8-2.3,4.4    c0,0.1,0,0.3,0,0.4c0,0.1,0,0.2,0,0.4c0.2,1.4,1,2.8,2.5,4c1.4,1.3,3.5,2.1,6.2,2.4c1.5,0.3,3.1,0.6,4.7,0.9    c1.6,0.3,3.3,0.7,4.9,1.1c5.7,1.3,11,3.5,15.8,6.5c4.8,3,7.2,7.9,7.2,14.7c0,8.8-3.1,15-9.3,18.8c-6.2,3.8-13.7,5.7-22.5,5.7    c-10.7,0-18.7-2.1-24-6.4c-5.3-4.3-8.2-10.6-8.6-18.9V464.4z"
   id="path64" />
		<path
   d="M430.8,415.1v29.4h24.6v-29.4h20.7v73.1h-20.7v-29.4h-24.6v29.4h-20.7v-73.1H430.8z"
   id="path66" />
	</g>
	<g
   id="g94">
		<rect
   x="73"
   y="332.1"
   class="st8"
   width="428.2"
   height="174.2"
   id="rect70" />
		<path
   class="st9"
   d="M139.4,332.1c1.2,0.1,3.1,0.2,5.7,0.3c2.6,0.1,5.2,0.6,8,1.4c3.6,1,6.9,2.8,9.8,5.3c3,2.5,4.7,6.3,5.1,11.4    c0,0.1,0,0.3,0,0.4c0,0.1,0,0.2,0.1,0.4c0,0.1,0,0.3,0,0.4c0,0.1,0,0.2,0,0.4c0,4-1.4,7.5-4.3,10.4c-2.9,2.9-6.8,4.5-11.6,4.9    c0.1,0,0.1,0,0.2,0.1c0,0,0.1,0.1,0.2,0.1c4.3,1.2,8.2,3.2,11.8,5.9c3.6,2.7,5.4,6.8,5.4,12.3c0,7.1-2.5,12.2-7.6,15.3    c-5.1,3-12.6,4.5-22.6,4.5h-32.6v-73.1H139.4z M137.8,360.7c3.2,0.1,5.4-0.5,6.8-1.7c1.3-1.2,2-3,2-5.4c0-2-0.8-3.6-2.3-5    c-1.5-1.4-3.7-2.1-6.5-2.1l-10.3-0.1v14.3H137.8z M138.6,390.9c3,0.1,5.3-0.5,6.7-1.7c1.4-1.2,2.3-2.5,2.6-3.9    c0.1-0.3,0.1-0.5,0.2-0.8c0-0.2,0.1-0.5,0.1-0.8c0-0.4,0-0.8-0.1-1.3c-0.1-0.4-0.2-0.9-0.4-1.4c-0.5-1.3-1.4-2.5-2.7-3.6    c-1.3-1.1-3.1-1.7-5.5-1.7l-11.9-0.1v15H138.6z"
   id="path72" />
		<path
   class="st9"
   d="M229.5,332.1v15h-34.9v14.3h32.6v15.2h-32.6v14.2h34.9v14.3h-55.7v-73.1H229.5z"
   id="path74" />
		<path
   class="st9"
   d="M267.2,332.1c0.3,0.1,0.7,0.1,1,0.1s0.6,0,1,0c6.9,0.1,13.2,1.4,18.9,3.9c5.7,2.5,8.6,7.5,8.6,15.2    c0,5.9-1.7,10.3-5.2,13c-3.4,2.7-7.5,4.5-12.3,5.3c7.2,0.3,11.7,2.7,13.4,7.3c1.7,4.6,2.8,9.6,3.4,14.9c0,0.1,0,0.3,0,0.4    c0,0.1,0,0.3,0.1,0.4c0.2,2.2,0.5,4.4,0.8,6.6c0.3,2.2,0.8,4.2,1.5,6h-22.2c-0.5-1.2-0.9-2.7-1.1-4.4c-0.2-1.8-0.3-3.6-0.5-5.5    c0-0.4,0-0.8-0.1-1.2c0-0.4-0.1-0.8-0.1-1.2c-0.3-3.9-0.9-7.5-2-10.7c-1.1-3.2-3.6-4.8-7.6-4.8l-9.5-0.1v27.9h-20.7v-73.1H267.2z     M255.2,363.1h8c0.3,0.1,0.7,0.1,1,0.1c0.3,0,0.6,0,1,0c2.5-0.1,4.8-0.7,6.9-1.7c2.1-1,3.1-3.1,3.1-6.3c0-2.8-1.1-4.8-3.2-6.1    c-2.2-1.3-4.8-1.9-8-1.9l-8.7-0.1V363.1z"
   id="path76" />
		<path
   class="st9"
   d="M323.1,332.1v58h32.6v15.2h-53.3v-73.1H323.1z"
   id="path78" />
		<path
   class="st9"
   d="M379.1,332.1v73.1h-20.7v-73.1H379.1z"
   id="path80" />
		<path
   class="st9"
   d="M414.3,332.1l24.7,54v-54h18.3v73.1h-28.7L404,350.4v54.8h-18.3v-73.1H414.3z"
   id="path82" />
		<path
   class="st9"
   d="M94.3,457.4H115c0,0.6,0,1.2,0.1,1.8c0.1,0.6,0.2,1.2,0.4,1.9c0.5,1.7,1.5,3.2,3.1,4.6    c1.6,1.4,4.1,2.1,7.5,2.1c3.6,0,6.4-0.7,8.3-2.1c1.9-1.4,2.9-3,3-4.8c0-0.3,0-0.5-0.1-0.8c0-0.2-0.1-0.5-0.2-0.8    c-0.5-1.5-1.7-3-3.6-4.4c-2-1.4-4.7-2.4-8.3-3.1c-0.1,0-0.3,0-0.4-0.1c-0.1,0-0.3-0.1-0.4-0.2c-10.8-2.4-18.1-5.1-22.1-8.1    c-3.9-3.1-6.1-7.7-6.5-14c0-0.2,0-0.4,0-0.6s0-0.4,0-0.5c-0.1-7.2,2.9-12.7,9-16.4c6.1-3.7,13.4-5.6,22-5.6    c11.9,0.4,19.8,2.7,23.7,7c3.9,4.3,5.8,9.6,5.8,16l-20.7-0.1c0-2.3-0.8-4.2-2.4-5.7c-1.6-1.5-4-2.2-7.2-2.2c-2.8,0-5,0.7-6.4,2    c-1.4,1.3-2.2,2.8-2.3,4.4c0,0.1,0,0.3,0,0.4c0,0.1,0,0.2,0,0.4c0.2,1.4,1,2.8,2.5,4c1.4,1.3,3.5,2.1,6.2,2.4    c1.5,0.3,3.1,0.6,4.7,0.9c1.6,0.3,3.3,0.7,4.9,1.1c5.7,1.3,11,3.5,15.8,6.5c4.8,3,7.2,7.9,7.2,14.7c0,8.8-3.1,15-9.3,18.8    c-6.2,3.8-13.7,5.7-22.5,5.7c-10.7,0-18.7-2.1-24-6.4c-5.3-4.3-8.2-10.6-8.6-18.9V457.4z"
   id="path84" />
		<path
   class="st9"
   d="M196.4,408.1l11.1,48.5l11.1-48.5h31.8v73.1H233v-61.2l-16.7,61.2h-19.1l-16-61.2v61.2h-17.5v-73.1H196.4z"
   id="path86" />
		<path
   class="st9"
   d="M306.4,408.1l28.7,73.1h-23l-4.8-13.5h-28.6l-4.7,13.5h-21.5l29.4-73.1H306.4z M293,423.2l-9.6,29.5h18.3    L293,423.2z"
   id="path88" />
		<path
   class="st9"
   d="M334.6,457.4h20.7c0,0.6,0,1.2,0.1,1.8c0.1,0.6,0.2,1.2,0.4,1.9c0.5,1.7,1.5,3.2,3.1,4.6    c1.6,1.4,4.1,2.1,7.5,2.1c3.6,0,6.4-0.7,8.3-2.1c1.9-1.4,2.9-3,3-4.8c0-0.3,0-0.5-0.1-0.8c0-0.2-0.1-0.5-0.2-0.8    c-0.5-1.5-1.7-3-3.6-4.4c-2-1.4-4.7-2.4-8.3-3.1c-0.1,0-0.3,0-0.4-0.1c-0.1,0-0.3-0.1-0.4-0.2c-10.8-2.4-18.1-5.1-22.1-8.1    c-3.9-3.1-6.1-7.7-6.5-14c0-0.2,0-0.4,0-0.6s0-0.4,0-0.5c-0.1-7.2,2.9-12.7,9-16.4c6.1-3.7,13.4-5.6,22-5.6    c11.9,0.4,19.8,2.7,23.7,7c3.9,4.3,5.8,9.6,5.8,16l-20.7-0.1c0-2.3-0.8-4.2-2.4-5.7c-1.6-1.5-4-2.2-7.2-2.2c-2.8,0-5,0.7-6.4,2    c-1.4,1.3-2.2,2.8-2.3,4.4c0,0.1,0,0.3,0,0.4c0,0.1,0,0.2,0,0.4c0.2,1.4,1,2.8,2.5,4c1.4,1.3,3.5,2.1,6.2,2.4    c1.5,0.3,3.1,0.6,4.7,0.9c1.6,0.3,3.3,0.7,4.9,1.1c5.7,1.3,11,3.5,15.8,6.5c4.8,3,7.2,7.9,7.2,14.7c0,8.8-3.1,15-9.3,18.8    c-6.2,3.8-13.7,5.7-22.5,5.7c-10.7,0-18.7-2.1-24-6.4c-5.3-4.3-8.2-10.6-8.6-18.9V457.4z"
   id="path90" />
		<path
   class="st9"
   d="M424.8,408.1v29.4h24.6v-29.4h20.7v73.1h-20.7v-29.4h-24.6v29.4h-20.7v-73.1H424.8z"
   id="path92" />
	</g>
	<g
   id="g96">
	</g>
	<g
   id="g98">
	</g>
	<g
   id="g100">
	</g>
	<g
   id="g102">
	</g>
	<g
   id="g104">
	</g>
	<g
   id="g106">
	</g>
	<g
   id="g108">
	</g>
	<g
   id="g110">
	</g>
	<g
   id="g112">
	</g>
	<g
   id="g114">
	</g>
	<g
   id="g116">
	</g>
	<g
   id="g118">
	</g>
	<g
   id="g120">
	</g>
	<g
   id="g122">
	</g>
	<g
   id="g124">
	</g>
</g>
</svg>