<?xml version="1.0" encoding="utf-8"?>
<!-- Generator: Adobe Illustrator 24.0.0, SVG Export Plug-In . SVG Version: 6.00 Build 0)  -->
<svg version="1.1" id="Ebene_1" xmlns="http://www.w3.org/2000/svg" xmlns:xlink="http://www.w3.org/1999/xlink" x="0px" y="0px"
	 viewBox="0 0 28.3 28.3" style="enable-background:new 0 0 28.3 28.3;" xml:space="preserve">
<style type="text/css">
	.st0{fill:#E20500;}
</style>
<g>
	<g>
		<path class="st0" d="M14.2,0C6.3,0,0,6.3,0,14.2s6.3,14.2,14.2,14.2c7.8,0,14.2-6.3,14.2-14.2S22,0,14.2,0z M22.2,13.1
			c0,0.4-0.3,0.9-0.5,1.1c-2.6,2.6-5.2,5.2-7.8,7.8c-0.8,0.8-1.4,0.8-2.2,0c-1.8-1.8-3.6-3.6-5.4-5.4c-0.8-0.8-0.8-1.4,0-2.2
			c2.6-2.6,5.2-5.2,7.9-7.9c0.2-0.2,0.6-0.5,1-0.5c1.2-0.1,2.5-0.1,3.7,0c0.4,0,0.9,0.4,1.3,0.6c0,0.1,0,0.2,0,0.3
			c-0.6,0.4-1.1,0.8-1.7,1.1c-0.5,0.3-0.9,0.8-0.8,1.4c0.1,0.6,0.6,1,1.1,1.1c0.6,0,1-0.2,1.3-0.8s0.7-1.1,1.1-1.7
			c0.1,0,0.2,0,0.3,0c0.2,0.4,0.5,0.8,0.6,1.3C22.2,10.7,22.2,11.9,22.2,13.1z M22.4,6.7c-0.9,0.9-1.7,1.7-2.6,2.6
			c-0.3,0.3-0.6,0.4-0.9,0.1c-0.3-0.4-0.1-0.7,0.1-1c0.8-0.8,1.7-1.7,2.5-2.5c0.2-0.2,0.5-0.2,0.7-0.2c0.1,0,0.3,0.3,0.4,0.4
			C22.6,6.4,22.5,6.6,22.4,6.7z"/>
	</g>
</g>
</svg>
