<?xml version="1.0" encoding="utf-8"?>
<!-- Generator: Adobe Illustrator 24.0.0, SVG Export Plug-In . SVG Version: 6.00 Build 0)  -->
<svg version="1.1" id="Ebene_1" xmlns="http://www.w3.org/2000/svg" xmlns:xlink="http://www.w3.org/1999/xlink" x="0px" y="0px"
	 viewBox="0 0 28.4 28.4" style="enable-background:new 0 0 28.4 28.4;" xml:space="preserve">
<style type="text/css">
	.st0{fill:#E20500;}
</style>
<title>slippi</title>
<path class="st0" d="M9,11.1c0.2,0,0.3,0,0.4-0.1c0.1-0.1,0.2-0.2,0.3-0.4c0-0.2,0-0.3,0-0.5C9.7,9.8,9.4,9.6,9.1,9.5
	c-0.2,0-0.3,0-0.5,0C8.5,9.6,8.4,9.7,8.3,9.8c-0.1,0.1-0.1,0.3-0.1,0.4c0,0.2,0.1,0.4,0.2,0.6C8.5,11,8.8,11.1,9,11.1z"/>
<path class="st0" d="M22.5,12.4l-1.2-0.7c0.2-0.3,0.3-0.6,0.4-0.9c0.1-0.3,0.1-0.7,0-1c-0.1-0.7-0.6-1.2-1.1-1.6
	c-0.3-0.2-0.6-0.3-0.9-0.3c-0.3,0-0.7,0-1,0.1c-0.3,0.1-0.6,0.3-0.9,0.5c-0.2,0.2-0.4,0.5-0.6,0.8L14.9,8c-0.2-0.1-0.5-0.2-0.7-0.2
	c-0.3,0-0.5,0.1-0.7,0.2l-2.3,1.3C11,9,10.8,8.8,10.6,8.5C10.3,8.3,10,8.1,9.7,8c-0.3-0.1-0.7-0.2-1-0.1C8.4,8,8,8.1,7.7,8.2
	C7.2,8.6,6.8,9.2,6.7,9.8c-0.1,0.7,0,1.4,0.4,1.9l-1.3,0.7c-0.2,0.1-0.4,0.3-0.5,0.5c-0.1,0.2-0.2,0.5-0.2,0.7v1
	c0,0.3,0.1,0.5,0.2,0.7c0.1,0.2,0.3,0.4,0.5,0.5l7.6,4.4c0.2,0.1,0.5,0.2,0.7,0.2c0.3,0,0.5-0.1,0.7-0.2l7.6-4.4
	c0.2-0.1,0.4-0.3,0.5-0.5c0.1-0.2,0.2-0.5,0.2-0.7v-1c0-0.2-0.1-0.5-0.2-0.7C22.9,12.8,22.7,12.6,22.5,12.4z M18,9.4
	c0.2-0.3,0.4-0.5,0.7-0.6c0.3-0.1,0.6-0.2,0.9-0.1c0.3,0.1,0.6,0.2,0.8,0.4c0.2,0.2,0.4,0.5,0.4,0.8c0.1,0.3,0,0.6-0.1,0.9
	c-0.1,0.3-0.3,0.5-0.6,0.7c-0.3,0.2-0.6,0.3-0.9,0.3c-0.9,0-1.6-0.7-1.6-1.6C17.7,10,17.8,9.7,18,9.4z M7.7,9.4
	c0.2-0.3,0.4-0.5,0.7-0.6C8.7,8.7,9,8.7,9.3,8.7c0.3,0.1,0.6,0.2,0.8,0.4c0.2,0.2,0.4,0.5,0.4,0.8c0.1,0.3,0,0.6-0.1,0.9
	c-0.1,0.3-0.3,0.5-0.6,0.7c-0.3,0.2-0.6,0.3-0.9,0.3c-0.4,0-0.8-0.2-1.1-0.5c-0.3-0.3-0.5-0.7-0.5-1.1C7.4,10,7.5,9.7,7.7,9.4
	L7.7,9.4z M22.1,15.3l-7.6,4.4c-0.1,0.1-0.2,0.1-0.4,0.1c-0.1,0-0.2,0-0.3-0.1l-7.6-4.4H6.1c0,0,0,0,0.1,0l7.2-0.9
	c0.5-0.1,1.1-0.1,1.6,0L22.1,15.3C22.2,15.3,22.2,15.3,22.1,15.3L22.1,15.3z"/>
<path class="st0" d="M19.3,11.1c0.2,0,0.3,0,0.5-0.1c0.3-0.2,0.4-0.5,0.4-0.8c0-0.2-0.1-0.3-0.2-0.4c-0.1-0.1-0.3-0.2-0.4-0.2
	c-0.2,0-0.3,0-0.5,0c-0.2,0.1-0.3,0.2-0.4,0.3c-0.1,0.1-0.1,0.3-0.1,0.4c0,0.2,0.1,0.4,0.2,0.6C18.9,11,19.1,11.1,19.3,11.1z"/>
<path class="st0" d="M14.2,0C6.3,0,0,6.3,0,14.2s6.3,14.2,14.2,14.2S28.4,22,28.4,14.2c0,0,0,0,0,0C28.3,6.3,22,0,14.2,0z M24,14.7
	c0,0.8-0.4,1.5-1.1,1.9L15.3,21c-0.3,0.2-0.7,0.3-1.1,0.3c-0.4,0-0.8-0.1-1.1-0.3l-7.6-4.4c-0.7-0.4-1.1-1.1-1.1-1.9v-1
	c0-0.8,0.4-1.5,1.1-1.9l0.6-0.3c-0.1-0.4-0.2-0.7-0.2-1.1C5.8,9.6,6,9,6.4,8.5c1-1.4,3-1.7,4.4-0.7c0.2,0.2,0.4,0.3,0.6,0.6L13,7.4
	c0.3-0.2,0.7-0.3,1.1-0.3c0.4,0,0.8,0.1,1.1,0.3l1.6,0.9c0.4-0.5,1-0.8,1.6-1c0.6-0.2,1.3-0.2,1.9,0.1C21,7.6,21.5,8,21.9,8.5
	c0.4,0.5,0.6,1.2,0.6,1.8c0,0.4-0.1,0.8-0.2,1.1l0.6,0.3c0.3,0.2,0.6,0.5,0.8,0.8c0.2,0.3,0.3,0.7,0.3,1.1L24,14.7z"/>
</svg>
