<?xml version="1.0" encoding="utf-8"?>
<!-- Generator: Adobe Illustrator 24.0.0, SVG Export Plug-In . SVG Version: 6.00 Build 0)  -->
<svg version="1.1" id="Ebene_1" xmlns="http://www.w3.org/2000/svg" xmlns:xlink="http://www.w3.org/1999/xlink" x="0px" y="0px"
	 viewBox="0 0 28.4 28.4" style="enable-background:new 0 0 28.4 28.4;" xml:space="preserve">
<style type="text/css">
	.st0{fill:#E20500;}
</style>
<title>twitch</title>
<path class="st0" d="M13.4,17.5l1.8-1.8h2l2-2V8.1h-8.1v7.6h2.3L13.4,17.5z M16.7,9.9h1v3h-1V9.9z M13.9,9.9h1v3h-1V9.9z"/>
<path class="st0" d="M14.2,0C6.3,0,0,6.3,0,14.2s6.3,14.2,14.2,14.2S28.4,22,28.4,14.2c0,0,0,0,0,0C28.3,6.3,22,0,14.2,0z
	 M20.3,14.2l-4.6,4.6h-2l-2.5,2.5v-2.5h-3V9.6l2.5-2.5h9.6L20.3,14.2z"/>
</svg>
