<svg id="Schrift" xmlns="http://www.w3.org/2000/svg" viewBox="0 0 392.86 83.25"><title>Twitch</title><path d="M70,20.94V36h-23V94.06H27V36H4v-15Z" transform="translate(-0.81 -12.42)"/><path d="M86.22,20.94l6.36,52.42L104.5,20.94h24.65l10.3,52.42,7.17-52.42H164.9L153,94.06H128.34L115.61,40.73,102.08,94.06H77.43L64.71,20.94Z" transform="translate(-0.81 -12.42)"/><path d="M186.72,20.94V94.06H166V20.94Z" transform="translate(-0.81 -12.42)"/><path d="M253.78,20.94V36h-23V94.06H210.86V36h-23v-15Z" transform="translate(-0.81 -12.42)"/><path d="M299.18,36.84q-3.39-3.08-9.34-3.08-9.09,0-11.57,6.87a47.78,47.78,0,0,0-2.67,15.15v3.44q.6,10.09,3.58,16.16t10.66,6.06q6.56,0,9.64-3.49a11.28,11.28,0,0,0,3.08-7.62l21.51-.1a25.12,25.12,0,0,1-.2,3.23,18.66,18.66,0,0,1-.7,3.23q-1.92,7.17-9.3,13.08t-22.42,5.91q-20.29,0-28.93-9.8t-9.25-26v-2q-.09-20.9,10.1-29.69t26.47-8.79q18.57,0,26.41,6.92a22.61,22.61,0,0,1,7.82,17.73L302.56,44A9.42,9.42,0,0,0,299.18,36.84Z" transform="translate(-0.81 -12.42)"/><path d="M348.32,20.94V50.33H373V20.94h20.7V94.06H373V64.67H348.32V94.06H327.61V20.94Z" transform="translate(-0.81 -12.42)"/><path d="M66.76,13.94V29h-23V87.06H23.84V29H.81v-15Z" transform="translate(-0.81 -12.42)" style="fill:#e20500"/><path d="M83,13.94l6.36,52.42L101.3,13.94H126l10.3,52.42,7.17-52.42H161.7L149.78,87.06H125.14L112.41,33.73,98.88,87.06H74.23L61.51,13.94Z" transform="translate(-0.81 -12.42)" style="fill:#e20500"/><path d="M183.52,13.94V87.06H162.81V13.94Z" transform="translate(-0.81 -12.42)" style="fill:#e20500"/><path d="M250.58,13.94V29h-23V87.06h-19.9V29h-23v-15Z" transform="translate(-0.81 -12.42)" style="fill:#e20500"/><path d="M296,29.84q-3.39-3.07-9.34-3.08-9.09,0-11.57,6.87a47.78,47.78,0,0,0-2.67,15.15v3.44q.6,10.1,3.58,16.16t10.66,6.06q6.56,0,9.64-3.49a11.28,11.28,0,0,0,3.08-7.62l21.51-.1a25.12,25.12,0,0,1-.2,3.23,18.66,18.66,0,0,1-.7,3.23q-1.92,7.17-9.3,13.08t-22.42,5.91q-20.29,0-28.94-9.8t-9.24-26v-2Q250,30,260.17,21.21t26.47-8.79q18.57,0,26.41,6.92a22.61,22.61,0,0,1,7.82,17.73L299.36,37A9.42,9.42,0,0,0,296,29.84Z" transform="translate(-0.81 -12.42)" style="fill:#e20500"/><path d="M345.12,13.94V43.33h24.64V13.94h20.7V87.06h-20.7V57.67H345.12V87.06H324.41V13.94Z" transform="translate(-0.81 -12.42)" style="fill:#e20500"/></svg>