<?xml version="1.0" encoding="utf-8"?>
<!-- Generator: Adobe Illustrator 24.0.0, SVG Export Plug-In . SVG Version: 6.00 Build 0)  -->
<svg version="1.1" id="Ebene_1" xmlns="http://www.w3.org/2000/svg" xmlns:xlink="http://www.w3.org/1999/xlink" x="0px" y="0px"
	 viewBox="0 0 28.4 28.4" style="enable-background:new 0 0 28.4 28.4;" xml:space="preserve">
<style type="text/css">
	.st0{fill:#E20500;}
</style>
<g id="layer1" transform="translate(-539.17946,-568.85777)">
	<g>
		<path class="st0" d="M553.4,568.9c-7.8,0-14.2,6.3-14.2,14.2c0,7.8,6.3,14.2,14.2,14.2c7.8,0,14.2-6.3,14.2-14.2
			C567.5,575.2,561.2,568.9,553.4,568.9z M559,580.1c0,0.1,0,0.3,0,0.4c0,3.8-2.9,8.3-8.3,8.3h0h0h0c-1.6,0-3.2-0.5-4.5-1.3
			c0.2,0,0.5,0,0.7,0c1.4,0,2.6-0.5,3.6-1.2c-1.3,0-2.3-0.9-2.7-2c0.2,0,0.4,0.1,0.5,0.1c0.3,0,0.5,0,0.8-0.1
			c-1.3-0.3-2.3-1.4-2.3-2.9c0,0,0,0,0,0c0.4,0.2,0.8,0.3,1.3,0.4c-0.8-0.5-1.3-1.4-1.3-2.4c0-0.5,0.1-1,0.4-1.5
			c1.4,1.8,3.6,2.9,6,3c0-0.2-0.1-0.4-0.1-0.7c0-1.6,1.3-2.9,2.9-2.9c0.8,0,1.6,0.4,2.1,0.9c0.7-0.1,1.3-0.4,1.8-0.7
			c-0.2,0.7-0.7,1.2-1.3,1.6c0.6-0.1,1.1-0.2,1.7-0.5C560.1,579.2,559.6,579.7,559,580.1z"/>
	</g>
</g>
</svg>
