<?xml version="1.0" encoding="utf-8"?>
<!-- Generator: Adobe Illustrator 24.0.0, SVG Export Plug-In . SVG Version: 6.00 Build 0)  -->
<svg version="1.1" id="Ebene_1" xmlns="http://www.w3.org/2000/svg" xmlns:xlink="http://www.w3.org/1999/xlink" x="0px" y="0px"
	 viewBox="0 0 28.4 28.4" style="enable-background:new 0 0 28.4 28.4;" xml:space="preserve">
<style type="text/css">
	.st0{fill:#E20500;}
</style>
<title>yt</title>
<polygon class="st0" points="12.7,16.3 16.4,14.2 12.7,12.1 "/>
<path class="st0" d="M14.2,0C6.3,0,0,6.3,0,14.2s6.3,14.2,14.2,14.2S28.4,22,28.4,14.2c0,0,0,0,0,0C28.3,6.3,22,0,14.2,0z M21,17.6
	c-0.2,0.6-0.6,1.1-1.3,1.3c-1.8,0.2-3.7,0.3-5.5,0.3c-1.8,0-3.7-0.1-5.5-0.3c-0.6-0.2-1.1-0.6-1.3-1.3c-0.2-1.1-0.3-2.3-0.3-3.4
	c0-1.1,0.1-2.3,0.3-3.4C7.6,10.1,8,9.7,8.6,9.5c1.8-0.2,3.7-0.3,5.5-0.3c1.9,0,3.7,0.1,5.5,0.3c0.6,0.2,1.1,0.6,1.3,1.3
	c0.2,1.1,0.3,2.3,0.3,3.4C21.3,15.3,21.2,16.5,21,17.6z"/>
</svg>
